<svg width="724" height="372" viewBox="0 0 724 372" fill="none" xmlns="http://www.w3.org/2000/svg">
<path d="M279.071 297.902L196.295 312.637L257.034 371.556L279.071 297.902Z" fill="#0083C8"/>
<path d="M81.9338 0L45.8012 23.2331L88.3281 41.2479L81.9338 0Z" fill="#0083C8"/>
<path d="M721.791 111.529V142.088L690.415 186.374V155.815L721.791 111.529ZM723.293 106.838L688.913 155.364V191.064L723.293 142.539V106.838Z" fill="#170C2C"/>
<path d="M688.898 191.064L571.316 113.06V77.3598L688.898 155.364V191.064Z" fill="#0083C8"/>
<path d="M124.982 347.29L94.8476 366.41L0.0195618 322.168L30.1484 303.053L124.982 347.29Z" fill="#C64F4B"/>
<path d="M75.87 211.288L45.7412 230.403L0.0195618 322.168L30.1484 303.048L75.87 211.288Z" fill="#0083C8"/>
<path d="M577.31 267.905L551.773 253.369L520.207 176.349L545.744 190.885L577.31 267.905Z" fill="#F5B4C4"/>
<path d="M505.691 271.05L531.228 285.586L577.31 267.905L551.773 253.369L505.691 271.05Z" fill="#0083C8"/>
<path d="M723.328 106.799L605.74 28.8027L571.364 77.3279L688.952 155.325L723.328 106.799Z" fill="#FCCE44"/>
<path d="M76.2223 212.249L31.1535 302.704L124.632 346.314L169.701 255.86L76.2223 212.249Z" fill="#FDFAF8"/>
<path d="M76.571 213.212L168.705 256.194L124.286 345.347L32.1563 302.365L76.571 213.212ZM75.875 211.274L30.1484 303.048L124.982 347.29L170.703 255.53L75.875 211.274Z" fill="#170C2C"/>
<path d="M519.783 177.327L475.098 194.473L506.107 270.142L550.792 252.996L519.783 177.327Z" fill="#FDFAF8"/>
<path d="M519.366 178.234L549.825 252.551L506.537 269.165L476.078 194.848L519.366 178.234ZM520.207 176.349L474.14 194.034L505.686 271.074L551.753 253.389L520.207 176.349Z" fill="#170C2C"/>
</svg>
