<svg width="778" height="376" viewBox="0 0 778 376" fill="none" xmlns="http://www.w3.org/2000/svg">
<path d="M282.558 67.446C289.673 119.46 233.917 170.82 191.26 145.314C171.541 133.511 179.833 104.973 176.153 78.0716C173.043 55.3424 152.088 38.4809 165.848 18.6346C194.67 -22.9379 274.876 11.3085 282.558 67.446Z" fill="#F5B4C4"/>
<path d="M325.024 191.098C337.704 191.098 347.983 181.151 347.983 168.882C347.983 156.613 337.704 146.666 325.024 146.666C312.345 146.666 302.066 156.613 302.066 168.882C302.066 181.151 312.345 191.098 325.024 191.098Z" fill="#FCCE44"/>
<path d="M541.52 318.524C547.216 318.524 552.785 320.158 557.522 323.221C562.258 326.283 565.95 330.636 568.13 335.729C570.309 340.822 570.879 346.426 569.768 351.833C568.656 357.239 565.912 362.205 561.884 366.103C557.855 370 552.723 372.654 547.136 373.729C541.548 374.804 535.757 374.251 530.494 372.141C525.231 370.031 520.733 366.458 517.569 361.874C514.405 357.29 512.717 351.901 512.718 346.389C512.727 339 515.765 331.917 521.164 326.693C526.564 321.469 533.884 318.531 541.52 318.524ZM541.52 317.07C535.526 317.069 529.666 318.788 524.682 322.01C519.697 325.232 515.812 329.811 513.518 335.17C511.224 340.528 510.623 346.425 511.792 352.113C512.962 357.802 515.848 363.027 520.086 367.129C524.325 371.23 529.725 374.023 535.604 375.154C541.483 376.285 547.576 375.704 553.114 373.484C558.651 371.264 563.384 367.505 566.714 362.682C570.043 357.859 571.82 352.189 571.819 346.389C571.819 338.613 568.627 331.156 562.944 325.657C557.262 320.159 549.555 317.07 541.52 317.07Z" fill="#170C2C"/>
<path d="M772.14 275.851C760.939 302.82 735.702 318.49 703.485 305.974C671.269 293.459 654.234 261.437 665.43 234.468C676.626 207.499 711.818 195.783 744.044 208.303C776.271 220.823 783.347 248.882 772.14 275.851Z" fill="#FCCE44"/>
<path d="M30.7458 123.656C47.4242 123.656 60.9448 110.573 60.9448 94.4342C60.9448 78.2954 47.4242 65.2123 30.7458 65.2123C14.0674 65.2123 0.546814 78.2954 0.546814 94.4342C0.546814 110.573 14.0674 123.656 30.7458 123.656Z" fill="#FCCE44"/>
<path d="M351.653 367.35C358.918 367.35 364.807 361.651 364.807 354.621C364.807 347.591 358.918 341.892 351.653 341.892C344.388 341.892 338.499 347.591 338.499 354.621C338.499 361.651 344.388 367.35 351.653 367.35Z" fill="#F5B4C4"/>
</svg>
