<svg width="547" height="360" viewBox="0 0 547 360" fill="none" xmlns="http://www.w3.org/2000/svg">
<g clip-path="url(#clip0)">
<path d="M330.648 73.2618H259.295V128.444H330.648V73.2618Z" fill="#0068A8"/>
<path d="M285.322 117.123C288.148 115.833 289.608 112.954 288.583 110.694C287.558 108.434 284.436 107.648 281.609 108.938C278.783 110.229 277.323 113.107 278.348 115.368C279.373 117.628 282.495 118.414 285.322 117.123Z" fill="white"/>
<path d="M259.295 103.269C270.676 102.972 282.047 101.911 282.808 98.8985C283.895 94.5988 270.235 86.7866 270.235 86.7866C270.235 86.7866 297.24 92.3474 301.12 85.3383C302.763 82.3772 294.632 77.4712 285.975 73.2618" stroke="white" stroke-width="2" stroke-linejoin="round"/>
<path d="M330.648 106.582C322.312 103.085 302.756 95.7245 298.236 101.553C294.17 106.801 302.136 119.677 308.549 128.444" stroke="white" stroke-width="2" stroke-miterlimit="10"/>
<path d="M310.468 73.2618C310.156 73.6597 309.937 74.1226 309.826 74.6166C308.887 79.3323 330.664 82.2321 330.664 82.2321" stroke="white" stroke-width="2" stroke-linejoin="round"/>
<path d="M126.56 115.749L109.901 87.7187C104.307 78.3098 111.077 66.3656 122.008 66.3656H155.31C166.24 66.3656 172.991 78.3001 167.401 87.7252L150.742 115.749C145.283 124.945 132.019 124.945 126.56 115.749Z" fill="#F490A4"/>
<path d="M169.008 83.8158C162.09 81.1193 144.576 74.9714 141.235 80.4322C138.445 84.9931 150.484 94.0311 159.907 100.173" stroke="white" stroke-width="2" stroke-linejoin="round"/>
<path d="M163.98 69.3428C162.849 69.6137 162.087 70.0395 161.797 70.6491C160.482 73.4424 165.864 79.2871 169.252 82.5836" stroke="white" stroke-width="2" stroke-linejoin="round"/>
<path d="M305.061 57.7792H233.709V112.962H305.061V57.7792Z" stroke="#170C2C" stroke-width="3" stroke-miterlimit="10"/>
<path d="M233.709 112.962L259.295 128.444" stroke="#170C2C" stroke-width="3" stroke-linejoin="bevel"/>
<path d="M305.061 112.962L330.648 128.444" stroke="#170C2C" stroke-width="3" stroke-linejoin="bevel"/>
<path d="M305.061 57.7792L330.648 73.2618" stroke="#170C2C" stroke-width="3" stroke-linejoin="bevel"/>
<path d="M290.299 66.3979L292.929 40.5709C292.929 40.5709 303.402 36.4777 302.332 29.1267C301.261 21.7757 293.652 24.2335 293.652 24.2335C293.652 24.2335 291.17 14.0569 280.696 12.2184C270.223 10.3798 264.323 15.8665 262.15 24.0852C258.376 38.355 265.664 43.7384 281.217 45.3738L280.118 62.4433" fill="#C64F4B"/>
<path d="M298.677 24.1851C298.677 24.1851 302.994 13.3279 289.553 6.80911C276.112 0.290284 272.55 4.76734 267.873 0.680575C263.195 -3.40619 253.727 12.0603 268.789 18.4372C283.85 24.8141 283.577 23.6884 283.577 23.6884C283.577 23.6884 281.841 30.8394 286.017 31.4845C290.193 32.1297 293.53 25.1528 293.53 25.1528" fill="#030207"/>
<path d="M267.827 31.6329L265.04 37.3454" stroke="#170C2C" stroke-width="3" stroke-miterlimit="10"/>
<path d="M272.634 33.0167C273.585 33.0167 274.357 32.2426 274.357 31.2878C274.357 30.333 273.585 29.5589 272.634 29.5589C271.682 29.5589 270.91 30.333 270.91 31.2878C270.91 32.2426 271.682 33.0167 272.634 33.0167Z" fill="#030207"/>
<path d="M264.095 32.7587C265.047 32.7587 265.818 31.9846 265.818 31.0298C265.818 30.0749 265.047 29.3009 264.095 29.3009C263.143 29.3009 262.372 30.0749 262.372 31.0298C262.372 31.9846 263.143 32.7587 264.095 32.7587Z" fill="#030207"/>
<path d="M288.534 137.163C303.373 137.163 316.249 146.466 319.57 159.594L362.474 329.138C362.474 329.138 381.12 326.558 387.611 332.764L337.801 359.516L290.463 182.879L268.991 259.969L267.882 359.503H211.057C211.057 359.503 220.104 347.404 235.847 344.121C235.847 344.121 231.102 277.403 236.728 243.484C239.885 224.453 251.776 184.998 257.338 160.264C260.356 146.83 273.399 137.163 288.534 137.163Z" fill="#030207"/>
<path d="M424.06 62.6143C417.774 62.6143 411.628 64.4847 406.401 67.9889C401.174 71.4931 397.1 76.4738 394.695 82.3012C392.289 88.1285 391.66 94.5407 392.886 100.727C394.112 106.913 397.14 112.596 401.585 117.056C406.03 121.516 411.693 124.553 417.859 125.784C424.025 127.014 430.416 126.382 436.223 123.969C442.031 121.555 446.995 117.467 450.488 112.223C453.98 106.979 455.845 100.813 455.845 94.5053C455.844 86.0476 452.495 77.9365 446.534 71.9559C440.574 65.9754 432.489 62.6152 424.06 62.6143V62.6143ZM424.06 107.872C421.425 107.873 418.849 107.089 416.658 105.621C414.466 104.152 412.758 102.065 411.75 99.6228C410.741 97.1804 410.477 94.4927 410.99 91.8996C411.504 89.3065 412.772 86.9245 414.635 85.0548C416.498 83.1851 418.872 81.9117 421.457 81.3957C424.041 80.8797 426.72 81.1442 429.154 82.1558C431.589 83.1674 433.669 84.8806 435.133 87.0788C436.597 89.2771 437.379 91.8615 437.379 94.5053C437.379 98.0498 435.976 101.449 433.478 103.956C430.98 106.462 427.593 107.871 424.06 107.872V107.872Z" fill="#FCCE44"/>
<path d="M546.335 73.5974C540.861 73.5978 535.44 74.6801 530.383 76.7825C525.326 78.8849 520.731 81.9662 516.861 85.8505C512.991 89.7347 509.921 94.3458 507.828 99.4205C505.734 104.495 504.657 109.934 504.658 115.426H547.003" fill="white"/>
<path d="M546.335 73.5974C540.861 73.5978 535.44 74.6801 530.383 76.7825C525.326 78.8849 520.731 81.9662 516.861 85.8505C512.991 89.7347 509.921 94.3458 507.828 99.4205C505.734 104.495 504.657 109.934 504.658 115.426H547.003" stroke="#170C2C" stroke-width="3" stroke-miterlimit="10"/>
<path d="M0.413143 64.3077L36.3031 124.706H0.413143" fill="white"/>
<path d="M0.413143 64.3077L36.3031 124.706H0.413143" stroke="#170C2C" stroke-width="3" stroke-miterlimit="10"/>
<path d="M317.856 56.0277C328.275 56.2245 359.327 89.8701 359.327 89.8701C359.327 89.8701 353.54 57.8469 349.107 51.8926C344.674 45.9382 359.131 29.0815 360.613 29.5783C362.095 30.075 355.765 38.6098 359.031 39.9968C359.87 40.3548 379.853 26.2527 381.683 27.8913C382.727 28.8235 366.547 41.2386 367.142 41.7353C367.737 42.2321 386.231 26.7978 387.913 28.7816C389.594 30.7653 370.209 44.3158 370.704 45.2093C371.199 46.1027 386.231 36.1261 387.421 37.3196C388.61 38.513 367.338 54.6375 367.338 54.6375" stroke="#170C2C" stroke-width="3" stroke-linejoin="bevel"/>
<path d="M372.983 51.3604C372.983 51.3604 384.839 106.479 376.249 112.301C361.314 122.422 314.031 85.3705 314.031 85.3705" stroke="#170C2C" stroke-width="3" stroke-linejoin="bevel"/>
<path d="M230.906 62.9401L208.042 68.5848C208.042 68.5848 223.794 35.7036 225.585 31.2136C227.273 26.9591 220.531 14.1601 218.085 14.1924C215.639 14.2246 219.464 23.4981 216.629 23.9045C213.035 24.4174 199.88 11.1184 198.202 12.886C196.572 14.6053 206.984 22.9497 206.46 23.669C205.936 24.3883 188.702 10.7185 186.828 12.8183C185.146 14.702 204.47 28.1655 203.715 29.1847C202.959 30.204 187.889 19.8661 186.532 21.4176C184.992 23.1755 202.808 37.0196 202.808 37.0196C202.808 37.0196 168.777 89.6573 178.302 95.1407C187.827 100.624 233.24 86.9575 233.24 86.9575" stroke="#170C2C" stroke-width="3" stroke-linejoin="bevel"/>
<path d="M209.408 165.596L223.631 151.323V179.866L209.408 165.596Z" fill="white"/>
<path d="M223.152 152.491V178.698L210.093 165.596L223.155 152.491H223.152ZM224.119 150.156L208.73 165.596L224.119 181.034V150.156Z" fill="#170C2C"/>
<path d="M351.55 151.323L365.773 165.596L351.55 179.866V151.323Z" fill="white"/>
<path d="M352.033 152.491L365.091 165.596L352.033 178.698V152.491ZM351.068 150.156V181.034L366.457 165.596L351.068 150.156Z" fill="#170C2C"/>
<path d="M203.67 359.516H396.017" stroke="#170C2C" stroke-width="3" stroke-linejoin="bevel"/>
<path d="M184.648 302.259H140.136L150.423 231.201L140.136 196.462L129.849 231.201L140.136 302.259H95.6208C95.6208 302.259 99.591 290.748 107.895 288.961C107.895 288.961 96.4148 249.264 97.0063 233.381C97.5979 217.499 114.614 160.335 114.614 160.335H165.655C165.655 160.335 182.668 217.502 183.262 233.381C183.857 249.261 172.377 288.961 172.377 288.961C180.678 290.748 184.648 302.259 184.648 302.259Z" fill="#C64F4B"/>
<path d="M403.749 302.259H456.568C456.568 302.259 450.633 293.725 446.676 293.128L451.337 189.036C451.502 185.355 450.921 181.678 449.631 178.228C448.34 174.777 446.366 171.625 443.827 168.962C441.289 166.298 438.239 164.178 434.861 162.73C431.484 161.282 427.849 160.535 424.176 160.535V160.535C420.24 160.535 416.351 161.392 412.777 163.047C409.204 164.702 406.032 167.116 403.479 170.121C400.926 173.127 399.055 176.653 397.994 180.456C396.932 184.259 396.707 188.247 397.332 192.146L413.242 291.541C413.242 291.541 405.527 296.105 403.749 302.259Z" fill="#F490A4"/>
<path d="M431.049 302.26L428.082 187.33" stroke="white" stroke-width="3" stroke-miterlimit="10"/>
<path d="M6.48746 166.341C11.5696 166.799 16.3269 169.045 19.9188 172.681C23.5107 176.318 25.706 181.111 26.117 186.214L34.9352 295.908C38.4971 295.115 47.9936 295.115 47.9936 295.115L25.4419 302.26L8.03057 201.622" fill="white"/>
<path d="M6.48746 166.341C11.5696 166.799 16.3269 169.045 19.9188 172.681C23.5107 176.318 25.706 181.111 26.117 186.214L34.9352 295.908C38.4971 295.115 47.9936 295.115 47.9936 295.115L25.4419 302.26L8.03057 201.622" stroke="#170C2C" stroke-width="3" stroke-linejoin="round"/>
<path d="M540.599 205.393C540.599 205.393 542.255 236.558 542.454 249.261C542.654 261.963 545.939 302.26 545.939 302.26H523.387C523.387 302.26 528.727 298.686 534.665 298.489L517.453 170.857L545.939 167.419" fill="white"/>
<path d="M540.599 205.393C540.599 205.393 542.255 236.558 542.454 249.261C542.654 261.963 545.939 302.26 545.939 302.26H523.387C523.387 302.26 528.727 298.686 534.665 298.489L517.453 170.857L545.939 167.419" stroke="#170C2C" stroke-width="3" stroke-linejoin="round"/>
<path d="M433.843 103.588C433.296 112.314 433.476 120.535 432.062 120.713C429.168 121.068 424.989 112.878 422.125 113.739C419.26 114.6 416.737 120.668 415.229 125.145" stroke="white" stroke-width="2" stroke-linejoin="round"/>
<path d="M455.986 94.3956C450.621 87.5349 444.606 81.7321 440.443 83.2449C438.485 83.9545 437.109 86.0286 436.132 88.8606" stroke="white" stroke-width="2" stroke-linejoin="round"/>
<path d="M124.39 112.11C131.186 112.139 136.973 111.098 138.316 107.733C141.975 98.5824 114.398 78.8904 116.051 76.4971C117.703 74.1037 126.582 76.4229 127.852 73.707C128.614 72.0749 127.891 69.2686 126.685 66.3979" stroke="white" stroke-width="2" stroke-linejoin="round"/>
<path d="M412.046 88.7219C408.115 85.0448 403.366 78.9549 399.73 73.9844" stroke="white" stroke-width="2" stroke-linejoin="round"/>
<path d="M430.239 63.2207C430.718 69.8202 430.483 75.5004 428.406 76.2906C424.716 77.6905 416.344 68.6332 416.344 68.6332C416.344 68.6332 419.09 75.4068 420.115 81.7386" stroke="white" stroke-width="2" stroke-linejoin="round"/>
<path d="M393.336 86.3543C396.358 92.5441 400.544 103.469 399.814 115.416" stroke="white" stroke-width="2" stroke-linejoin="round"/>
</g>
<defs>
<clipPath id="clip0">
<rect width="547" height="360" fill="white"/>
</clipPath>
</defs>
</svg>
