<svg width="1671" height="1142" viewBox="0 0 1671 1142" fill="none" xmlns="http://www.w3.org/2000/svg">
<g clip-path="url(#clip0)">
<path d="M1013.94 193.07C1013.82 179.668 1011.06 166.422 1005.8 154.092C1000.55 141.762 992.915 130.591 983.334 121.22C973.752 111.85 962.414 104.464 949.97 99.4865C937.527 94.5093 924.222 92.0391 910.821 92.2175C897.42 92.396 884.186 95.2196 871.88 100.526C859.573 105.833 848.435 113.518 839.107 123.141C829.778 132.763 822.442 144.134 817.519 156.599C812.597 169.065 810.185 182.38 810.422 195.78L1013.94 193.07Z" fill="#C64F4B"/>
<path d="M864.943 37.4102C864.943 37.4102 834.253 60.0802 832.283 86.2702C830.313 112.46 862.223 132.63 862.223 132.63L939.943 96.0902L864.943 37.4102Z" fill="black"/>
<path d="M926.282 129.08L928.282 62.9599C928.282 62.9599 949.282 51.9598 945.282 36.8798C941.282 21.7998 925.962 28.7198 925.962 28.7198C925.962 28.7198 918.382 8.06984 896.032 6.71984C873.682 5.36984 861.732 31.1699 863.562 48.9299C866.262 75.1498 877.562 87.7098 903.772 81.4998L900.942 117.88" fill="#FCCE44"/>
<path d="M880.875 61.8101L876.645 73.6701" stroke="#170C2C" stroke-width="3" stroke-miterlimit="10"/>
<path d="M926.825 110.88C902.765 103.88 915.665 25.4899 915.665 25.4899C891.835 39.6699 864.945 33.6499 864.945 33.6499C864.945 33.6499 871.435 -3.8901 912.125 0.329903C952.815 4.5499 961.945 30.4599 961.945 30.4599C961.945 30.4599 1005.47 40.5999 1006.36 75.6999C1007.25 110.8 969.845 134.33 969.845 134.33C969.845 134.33 945.945 116.41 926.825 110.88Z" fill="black"/>
<path d="M874.475 62.6063C876.094 62.2276 876.939 59.9239 876.362 57.461C875.786 54.998 874.007 53.3085 872.388 53.6872C870.769 54.066 869.924 56.3697 870.501 58.8326C871.077 61.2955 872.856 62.9851 874.475 62.6063Z" fill="#170C2C"/>
<path d="M889.233 61.6581C890.851 61.2793 891.696 58.9757 891.12 56.5127C890.544 54.0498 888.764 52.3602 887.146 52.739C885.527 53.1178 884.682 55.4214 885.258 57.8843C885.835 60.3473 887.614 62.0368 889.233 61.6581Z" fill="#170C2C"/>
<path d="M912.782 260C825.292 255.39 648.272 360.88 654.282 419.39C660.292 477.9 716.132 624.61 716.132 624.61C716.132 624.61 680.442 641.88 678.202 666.45L825.032 634.55L786.132 446.44L914.362 400.96L996.572 500.65L992.242 691.38L1136.3 711.49C1127.7 696.664 1115.47 684.274 1100.75 675.49C1100.75 675.49 1135.75 525.66 1117.98 460.34C1100.94 397.6 1022.49 265.78 912.782 260Z" fill="black"/>
<path d="M1025.05 1105.84C1137.64 1105.84 1228.9 1014.57 1228.9 901.99C1228.9 789.407 1137.64 698.14 1025.05 698.14C912.47 698.14 821.203 789.407 821.203 901.99C821.203 1014.57 912.47 1105.84 1025.05 1105.84Z" fill="#C64F4B"/>
<path d="M786.673 821.34C835.357 821.34 874.823 781.874 874.823 733.19C874.823 684.506 835.357 645.04 786.673 645.04C737.99 645.04 698.523 684.506 698.523 733.19C698.523 781.874 737.99 821.34 786.673 821.34Z" fill="#F7C9D6"/>
<path d="M552.764 455.05C547.308 455.05 541.976 453.432 537.44 450.401C532.904 447.37 529.369 443.062 527.282 438.022C525.195 432.982 524.649 427.436 525.714 422.086C526.779 416.736 529.407 411.821 533.265 407.965C537.123 404.108 542.038 401.482 547.389 400.419C552.74 399.356 558.286 399.903 563.325 401.992C568.364 404.081 572.671 407.618 575.7 412.155C578.73 416.692 580.346 422.025 580.344 427.48C580.336 434.791 577.427 441.801 572.256 446.97C567.085 452.139 560.075 455.045 552.764 455.05Z" fill="white"/>
<path d="M552.764 401.4C557.922 401.398 562.965 402.926 567.256 405.79C571.546 408.655 574.89 412.727 576.866 417.493C578.841 422.258 579.359 427.502 578.354 432.562C577.349 437.621 574.865 442.269 571.218 445.918C567.572 449.566 562.925 452.051 557.865 453.058C552.806 454.065 547.562 453.549 542.796 451.576C538.029 449.602 533.956 446.259 531.09 441.97C528.223 437.681 526.694 432.638 526.694 427.48C526.702 420.567 529.45 413.94 534.337 409.051C539.225 404.162 545.851 401.41 552.764 401.4ZM552.764 398.4C547.012 398.4 541.39 400.105 536.608 403.301C531.825 406.496 528.098 411.038 525.897 416.351C523.696 421.665 523.12 427.512 524.242 433.153C525.364 438.794 528.134 443.976 532.201 448.043C536.268 452.109 541.449 454.879 547.09 456.001C552.731 457.123 558.578 456.547 563.892 454.346C569.206 452.145 573.747 448.418 576.943 443.636C580.138 438.854 581.844 433.231 581.844 427.48C581.845 423.661 581.094 419.879 579.633 416.35C578.172 412.821 576.03 409.615 573.329 406.914C570.629 404.214 567.422 402.072 563.894 400.611C560.365 399.15 556.583 398.399 552.764 398.4Z" fill="#170C2C"/>
<path d="M310.002 429.47C349.22 429.47 381.012 397.678 381.012 358.46C381.012 319.242 349.22 287.45 310.002 287.45C270.784 287.45 238.992 319.242 238.992 358.46C238.992 397.678 270.784 429.47 310.002 429.47Z" fill="white"/>
<path d="M310.002 288.95C323.75 288.95 337.189 293.027 348.62 300.665C360.051 308.303 368.96 319.159 374.221 331.86C379.482 344.561 380.859 358.537 378.177 372.021C375.495 385.505 368.874 397.89 359.153 407.611C349.432 417.332 337.047 423.953 323.563 426.635C310.079 429.317 296.103 427.94 283.402 422.679C270.701 417.418 259.845 408.509 252.207 397.078C244.569 385.647 240.492 372.208 240.492 358.46C240.513 340.031 247.844 322.364 260.875 309.333C273.906 296.302 291.574 288.971 310.002 288.95ZM310.002 285.95C295.661 285.95 281.642 290.203 269.718 298.17C257.794 306.138 248.5 317.462 243.012 330.712C237.524 343.961 236.088 358.541 238.885 372.606C241.683 386.672 248.589 399.592 258.73 409.732C268.871 419.873 281.791 426.779 295.856 429.577C309.922 432.375 324.501 430.939 337.751 425.451C351 419.963 362.325 410.669 370.292 398.745C378.26 386.82 382.512 372.801 382.512 358.46C382.512 339.229 374.873 320.786 361.275 307.188C347.676 293.59 329.233 285.95 310.002 285.95Z" fill="#170C2C"/>
<path d="M1214.66 572.11C1264.98 572.11 1305.76 531.323 1305.76 481.01C1305.76 430.697 1264.98 389.91 1214.66 389.91C1164.35 389.91 1123.56 430.697 1123.56 481.01C1123.56 531.323 1164.35 572.11 1214.66 572.11Z" fill="white"/>
<path d="M1214.66 391.4C1232.39 391.398 1249.71 396.652 1264.45 406.498C1279.19 416.343 1290.68 430.339 1297.46 446.713C1304.24 463.088 1306.02 481.106 1302.56 498.49C1299.1 515.873 1290.57 531.841 1278.04 544.374C1265.5 556.907 1249.54 565.441 1232.15 568.899C1214.77 572.356 1196.75 570.58 1180.38 563.797C1164 557.013 1150.01 545.526 1140.16 530.788C1130.32 516.05 1125.06 498.724 1125.06 481C1125.09 457.245 1134.54 434.47 1151.34 417.672C1168.13 400.875 1190.91 391.426 1214.66 391.4ZM1214.66 388.4C1196.35 388.398 1178.44 393.828 1163.21 404.003C1147.98 414.179 1136.11 428.642 1129.09 445.565C1122.08 462.488 1120.25 481.109 1123.82 499.075C1127.4 517.04 1136.22 533.543 1149.17 546.495C1162.12 559.447 1178.62 568.268 1196.59 571.841C1214.55 575.414 1233.18 573.579 1250.1 566.569C1267.02 559.558 1281.48 547.686 1291.66 532.455C1301.83 517.224 1307.26 499.317 1307.26 481C1307.26 456.441 1297.51 432.888 1280.14 415.522C1262.78 398.156 1239.22 388.4 1214.66 388.4Z" fill="#170C2C"/>
<path d="M707.905 1090.57C774.522 1090.57 828.525 1036.57 828.525 969.95C828.525 903.333 774.522 849.33 707.905 849.33C641.289 849.33 587.285 903.333 587.285 969.95C587.285 1036.57 641.289 1090.57 707.905 1090.57Z" fill="#0083C8"/>
<path d="M1388.33 482.85C1451.53 482.85 1502.78 431.609 1502.78 368.4C1502.78 305.191 1451.53 253.95 1388.33 253.95C1325.12 253.95 1273.88 305.191 1273.88 368.4C1273.88 431.609 1325.12 482.85 1388.33 482.85Z" fill="#F7C9D6"/>
<path d="M434.384 576.97C489.308 576.97 533.834 532.445 533.834 477.52C533.834 422.595 489.308 378.07 434.384 378.07C379.459 378.07 334.934 422.595 334.934 477.52C334.934 532.445 379.459 576.97 434.384 576.97Z" fill="#0083C8"/>
<path d="M1304.72 840.61C1383.41 840.61 1447.19 776.824 1447.19 698.14C1447.19 619.456 1383.41 555.67 1304.72 555.67C1226.04 555.67 1162.25 619.456 1162.25 698.14C1162.25 776.824 1226.04 840.61 1304.72 840.61Z" fill="#FCCE44"/>
<path d="M674.945 851.33C666.211 851.33 657.673 848.74 650.411 843.887C643.149 839.035 637.489 832.138 634.147 824.069C630.804 816 629.93 807.121 631.634 798.555C633.338 789.988 637.543 782.12 643.719 775.944C649.895 769.768 657.764 765.562 666.33 763.858C674.896 762.154 683.775 763.029 691.844 766.371C699.914 769.714 706.811 775.374 711.663 782.636C716.515 789.898 719.105 798.436 719.105 807.17C719.092 818.878 714.435 830.102 706.156 838.381C697.878 846.66 686.653 851.317 674.945 851.33Z" fill="white"/>
<path d="M674.945 764.52C683.383 764.518 691.633 767.019 698.65 771.705C705.667 776.392 711.136 783.055 714.366 790.85C717.596 798.646 718.442 807.224 716.796 815.5C715.15 823.776 711.087 831.378 705.12 837.345C699.154 843.312 691.551 847.375 683.275 849.021C674.999 850.667 666.421 849.821 658.625 846.591C650.83 843.361 644.167 837.891 639.481 830.874C634.794 823.857 632.293 815.608 632.295 807.17C632.308 795.863 636.806 785.022 644.802 777.026C652.797 769.031 663.638 764.533 674.945 764.52ZM674.945 761.52C665.914 761.52 657.086 764.198 649.577 769.216C642.068 774.233 636.215 781.365 632.76 789.709C629.304 798.053 628.401 807.234 630.163 816.091C631.926 824.949 636.276 833.085 642.662 839.47C649.049 845.855 657.186 850.203 666.044 851.964C674.901 853.725 684.082 852.819 692.425 849.361C700.769 845.904 707.899 840.05 712.915 832.54C717.931 825.03 720.607 816.201 720.605 807.17C720.605 801.174 719.424 795.237 717.129 789.698C714.835 784.159 711.471 779.126 707.231 774.887C702.991 770.648 697.957 767.286 692.418 764.992C686.878 762.698 680.941 761.519 674.945 761.52Z" fill="#170C2C"/>
<path d="M1346.09 877.6C1357.29 877.6 1366.37 868.52 1366.37 857.32C1366.37 846.12 1357.29 837.04 1346.09 837.04C1334.89 837.04 1325.81 846.12 1325.81 857.32C1325.81 868.52 1334.89 877.6 1346.09 877.6Z" fill="white"/>
<path d="M1346.1 838.54C1349.82 838.542 1353.45 839.645 1356.54 841.71C1359.62 843.775 1362.03 846.708 1363.45 850.14C1364.87 853.572 1365.24 857.348 1364.51 860.99C1363.79 864.632 1362 867.978 1359.37 870.603C1356.74 873.229 1353.4 875.016 1349.75 875.74C1346.11 876.464 1342.34 876.091 1338.91 874.67C1335.47 873.248 1332.54 870.841 1330.48 867.753C1328.42 864.664 1327.31 861.034 1327.31 857.32C1327.32 852.339 1329.3 847.564 1332.82 844.043C1336.35 840.522 1341.12 838.543 1346.1 838.54ZM1346.1 835.54C1341.8 835.54 1337.59 836.817 1334 839.211C1330.42 841.604 1327.63 845.005 1325.98 848.985C1324.33 852.965 1323.9 857.344 1324.74 861.569C1325.58 865.794 1327.66 869.675 1330.7 872.721C1333.75 875.767 1337.63 877.841 1341.86 878.682C1346.08 879.522 1350.46 879.091 1354.44 877.442C1358.42 875.794 1361.82 873.002 1364.21 869.42C1366.61 865.839 1367.88 861.628 1367.88 857.32C1367.88 851.544 1365.59 846.006 1361.5 841.922C1357.42 837.838 1351.88 835.543 1346.1 835.54Z" fill="#170C2C"/>
<path d="M339.143 689.26C350.344 689.26 359.423 680.18 359.423 668.98C359.423 657.78 350.344 648.7 339.143 648.7C327.943 648.7 318.863 657.78 318.863 668.98C318.863 680.18 327.943 689.26 339.143 689.26Z" fill="white"/>
<path d="M339.153 650.2C342.867 650.2 346.498 651.302 349.586 653.365C352.675 655.429 355.082 658.362 356.503 661.793C357.925 665.225 358.297 669.001 357.572 672.644C356.847 676.287 355.059 679.633 352.432 682.26C349.806 684.886 346.46 686.675 342.817 687.399C339.174 688.124 335.398 687.752 331.966 686.331C328.534 684.909 325.601 682.502 323.538 679.414C321.474 676.325 320.373 672.694 320.373 668.98C320.378 664.001 322.358 659.227 325.879 655.707C329.4 652.186 334.174 650.205 339.153 650.2ZM339.153 647.2C334.846 647.202 330.636 648.481 327.055 650.876C323.475 653.27 320.685 656.672 319.038 660.652C317.391 664.632 316.961 669.011 317.803 673.235C318.644 677.46 320.719 681.34 323.766 684.385C326.812 687.43 330.693 689.503 334.917 690.342C339.142 691.182 343.521 690.75 347.5 689.101C351.479 687.453 354.88 684.661 357.273 681.079C359.666 677.498 360.943 673.287 360.943 668.98C360.943 663.204 358.648 657.664 354.564 653.579C350.479 649.495 344.939 647.2 339.163 647.2H339.153Z" fill="#170C2C"/>
<path d="M1524.16 340.81C1517.73 340.808 1511.44 338.899 1506.1 335.325C1500.75 331.75 1496.58 326.67 1494.12 320.728C1491.67 314.786 1491.02 308.247 1492.28 301.94C1493.53 295.632 1496.63 289.838 1501.18 285.291C1505.73 280.744 1511.52 277.648 1517.83 276.394C1524.14 275.14 1530.68 275.785 1536.62 278.246C1542.56 280.708 1547.64 284.876 1551.21 290.224C1554.79 295.572 1556.69 301.859 1556.69 308.29C1556.68 316.913 1553.25 325.18 1547.15 331.277C1541.05 337.374 1532.79 340.802 1524.16 340.81Z" fill="white"/>
<path d="M1524.16 277.27C1530.3 277.27 1536.29 279.088 1541.39 282.494C1546.48 285.901 1550.46 290.742 1552.8 296.407C1555.15 302.071 1555.76 308.304 1554.57 314.318C1553.37 320.331 1550.42 325.855 1546.08 330.19C1541.75 334.526 1536.23 337.478 1530.21 338.674C1524.2 339.87 1517.97 339.257 1512.3 336.91C1506.64 334.564 1501.79 330.591 1498.39 325.493C1494.98 320.395 1493.16 314.401 1493.16 308.27C1493.18 300.053 1496.45 292.177 1502.26 286.367C1508.07 280.557 1515.95 277.286 1524.16 277.27ZM1524.16 274.27C1517.44 274.27 1510.87 276.264 1505.27 280C1499.68 283.736 1495.33 289.046 1492.75 295.259C1490.18 301.471 1489.51 308.308 1490.82 314.903C1492.13 321.498 1495.37 327.557 1500.12 332.312C1504.88 337.067 1510.94 340.305 1517.53 341.617C1524.13 342.929 1530.96 342.255 1537.18 339.682C1543.39 337.109 1548.7 332.751 1552.43 327.159C1556.17 321.568 1558.16 314.995 1558.16 308.27C1558.16 299.253 1554.58 290.605 1548.21 284.228C1541.83 277.852 1533.18 274.27 1524.16 274.27Z" fill="#170C2C"/>
<path d="M343.255 647.2C371.167 647.2 393.795 624.573 393.795 596.66C393.795 568.748 371.167 546.12 343.255 546.12C315.342 546.12 292.715 568.748 292.715 596.66C292.715 624.573 315.342 647.2 343.255 647.2Z" fill="#F7C9D6"/>
<path d="M601.754 590.03C642.071 590.03 674.754 557.347 674.754 517.03C674.754 476.713 642.071 444.03 601.754 444.03C561.437 444.03 528.754 476.713 528.754 517.03C528.754 557.347 561.437 590.03 601.754 590.03Z" fill="#F7C9D6"/>
<path d="M491.594 389.84C515.956 389.84 535.704 370.091 535.704 345.73C535.704 321.369 515.956 301.62 491.594 301.62C467.233 301.62 447.484 321.369 447.484 345.73C447.484 370.091 467.233 389.84 491.594 389.84Z" fill="#FCCE44"/>
<path d="M608.023 414.77C647.964 414.77 680.343 382.391 680.343 342.45C680.343 302.509 647.964 270.13 608.023 270.13C568.082 270.13 535.703 302.509 535.703 342.45C535.703 382.391 568.082 414.77 608.023 414.77Z" fill="#C64F4B"/>
<path d="M503.392 864.85C585.616 864.85 652.272 798.194 652.272 715.97C652.272 633.746 585.616 567.09 503.392 567.09C421.168 567.09 354.512 633.746 354.512 715.97C354.512 798.194 421.168 864.85 503.392 864.85Z" fill="#C64F4B"/>
<path d="M900.823 628.68C953.218 628.68 995.693 586.205 995.693 533.81C995.693 481.415 953.218 438.94 900.823 438.94C848.428 438.94 805.953 481.415 805.953 533.81C805.953 586.205 848.428 628.68 900.823 628.68Z" fill="#0083C8"/>
<path d="M911.484 723.94C902.211 723.942 893.147 721.194 885.436 716.044C877.725 710.894 871.715 703.573 868.165 695.007C864.615 686.441 863.686 677.015 865.493 667.92C867.301 658.826 871.765 650.472 878.321 643.915C884.877 637.357 893.23 632.891 902.324 631.082C911.418 629.272 920.845 630.2 929.412 633.748C937.978 637.296 945.301 643.304 950.452 651.014C955.604 658.724 958.354 667.788 958.354 677.06C958.341 689.488 953.399 701.403 944.612 710.191C935.825 718.98 923.911 723.924 911.484 723.94Z" fill="white"/>
<path d="M911.484 631.68C920.459 631.68 929.233 634.342 936.696 639.328C944.158 644.315 949.975 651.402 953.409 659.694C956.844 667.986 957.743 677.111 955.992 685.913C954.241 694.716 949.919 702.802 943.572 709.149C937.226 715.495 929.14 719.817 920.337 721.568C911.534 723.319 902.41 722.421 894.118 718.986C885.826 715.551 878.738 709.735 873.752 702.272C868.765 694.809 866.104 686.035 866.104 677.06C866.117 665.029 870.902 653.494 879.41 644.986C887.917 636.479 899.452 631.693 911.484 631.68ZM911.484 628.68C901.915 628.678 892.56 631.514 884.603 636.829C876.645 642.144 870.443 649.699 866.779 658.539C863.116 667.379 862.157 677.107 864.022 686.493C865.888 695.878 870.495 704.499 877.26 711.266C884.026 718.034 892.647 722.642 902.032 724.51C911.417 726.377 921.145 725.42 929.986 721.758C938.827 718.097 946.383 711.896 951.7 703.94C957.016 695.983 959.854 686.629 959.854 677.06C959.854 664.231 954.758 651.927 945.687 642.854C936.616 633.781 924.313 628.683 911.484 628.68Z" fill="#170C2C"/>
<path d="M539.082 973.67C569.883 973.67 594.853 948.701 594.853 917.9C594.853 887.099 569.883 862.13 539.082 862.13C508.282 862.13 483.312 887.099 483.312 917.9C483.312 948.701 508.282 973.67 539.082 973.67Z" fill="#FCCE44"/>
<path d="M1163.44 674.326C1169.93 658.666 1162.49 640.714 1146.83 634.227C1131.17 627.741 1113.22 635.177 1106.73 650.837C1100.25 666.496 1107.68 684.449 1123.34 690.935C1139 697.421 1156.95 689.985 1163.44 674.326Z" fill="#F7C9D6"/>
<path d="M1271.63 972.58C1277.23 959.073 1270.81 943.589 1257.31 937.995C1243.8 932.4 1228.32 938.814 1222.72 952.32C1217.13 965.827 1223.54 981.311 1237.05 986.905C1250.55 992.499 1266.04 986.086 1271.63 972.58Z" fill="#F7C9D6"/>
<path d="M797.825 879.32C813.952 879.32 827.025 866.247 827.025 850.12C827.025 833.993 813.952 820.92 797.825 820.92C781.698 820.92 768.625 833.993 768.625 850.12C768.625 866.247 781.698 879.32 797.825 879.32Z" fill="#FCCE44"/>
<path d="M1155.19 635.05C1176.12 635.05 1193.09 618.082 1193.09 597.15C1193.09 576.218 1176.12 559.25 1155.19 559.25C1134.26 559.25 1117.29 576.218 1117.29 597.15C1117.29 618.082 1134.26 635.05 1155.19 635.05Z" fill="#C64F4B"/>
<path d="M750.712 855.94C761.968 855.94 771.092 846.816 771.092 835.56C771.092 824.305 761.968 815.18 750.712 815.18C739.456 815.18 730.332 824.305 730.332 835.56C730.332 846.816 739.456 855.94 750.712 855.94Z" fill="#C64F4B"/>
<path d="M295.122 564.7C306.378 564.7 315.502 555.576 315.502 544.32C315.502 533.064 306.378 523.94 295.122 523.94C283.867 523.94 274.742 533.064 274.742 544.32C274.742 555.576 283.867 564.7 295.122 564.7Z" fill="#C64F4B"/>
<path d="M18.5034 650.74C28.2954 650.74 36.2334 642.802 36.2334 633.01C36.2334 623.218 28.2954 615.28 18.5034 615.28C8.71143 615.28 0.773438 623.218 0.773438 633.01C0.773438 642.802 8.71143 650.74 18.5034 650.74Z" fill="#0083C8"/>
<path d="M1417.76 169.83C1434.02 169.83 1447.19 156.654 1447.19 140.4C1447.19 124.146 1434.02 110.97 1417.76 110.97C1401.51 110.97 1388.33 124.146 1388.33 140.4C1388.33 156.654 1401.51 169.83 1417.76 169.83Z" fill="#F7C9D6"/>
<path d="M179.995 1042.8C196.668 1042.8 210.185 1029.28 210.185 1012.61C210.185 995.936 196.668 982.42 179.995 982.42C163.321 982.42 149.805 995.936 149.805 1012.61C149.805 1029.28 163.321 1042.8 179.995 1042.8Z" fill="#C64F4B"/>
<path d="M1650.54 682.96C1661.8 682.96 1670.92 673.836 1670.92 662.58C1670.92 651.325 1661.8 642.2 1650.54 642.2C1639.29 642.2 1630.16 651.325 1630.16 662.58C1630.16 673.836 1639.29 682.96 1650.54 682.96Z" fill="#C64F4B"/>
<path d="M483.302 141.84C505.603 141.84 523.682 123.761 523.682 101.46C523.682 79.1588 505.603 61.0801 483.302 61.0801C461.001 61.0801 442.922 79.1588 442.922 101.46C442.922 123.761 461.001 141.84 483.302 141.84Z" fill="#C64F4B"/>
<path d="M308.603 525.88C324.05 525.88 336.573 513.357 336.573 497.91C336.573 482.463 324.05 469.94 308.603 469.94C293.155 469.94 280.633 482.463 280.633 497.91C280.633 513.357 293.155 525.88 308.603 525.88Z" fill="#FCCE44"/>
<path d="M635.672 450.49C646.718 450.49 655.672 441.536 655.672 430.49C655.672 419.445 646.718 410.49 635.672 410.49C624.626 410.49 615.672 419.445 615.672 430.49C615.672 441.536 624.626 450.49 635.672 450.49Z" fill="#0083C8"/>
<path d="M402.892 382.12C414.147 382.12 423.272 372.995 423.272 361.74C423.272 350.484 414.147 341.36 402.892 341.36C391.636 341.36 382.512 350.484 382.512 361.74C382.512 372.995 391.636 382.12 402.892 382.12Z" fill="#F7C9D6"/>
<path d="M674.722 761.67C687.866 761.67 698.522 751.014 698.522 737.87C698.522 724.725 687.866 714.07 674.722 714.07C661.577 714.07 650.922 724.725 650.922 737.87C650.922 751.014 661.577 761.67 674.722 761.67Z" fill="#C64F4B"/>
<path d="M662.724 654.11C685.175 654.11 703.374 635.91 703.374 613.46C703.374 591.01 685.175 572.81 662.724 572.81C640.274 572.81 622.074 591.01 622.074 613.46C622.074 635.91 640.274 654.11 662.724 654.11Z" fill="#FCCE44"/>
<path d="M1281.07 943.52C1309.88 943.52 1333.23 920.167 1333.23 891.36C1333.23 862.553 1309.88 839.2 1281.07 839.2C1252.27 839.2 1228.91 862.553 1228.91 891.36C1228.91 920.167 1252.27 943.52 1281.07 943.52Z" fill="#0083C8"/>
<path d="M1562.29 1029.58C1607.78 1029.58 1644.65 992.706 1644.65 947.22C1644.65 901.734 1607.78 864.86 1562.29 864.86C1516.81 864.86 1479.93 901.734 1479.93 947.22C1479.93 992.706 1516.81 1029.58 1562.29 1029.58Z" fill="#0083C8"/>
<path d="M1447.19 610.6C1485.09 610.6 1515.81 579.878 1515.81 541.98C1515.81 504.082 1485.09 473.36 1447.19 473.36C1409.3 473.36 1378.57 504.082 1378.57 541.98C1378.57 579.878 1409.3 610.6 1447.19 610.6Z" fill="#C64F4B"/>
<path d="M282.774 984.26C315.746 984.26 342.474 957.531 342.474 924.56C342.474 891.588 315.746 864.86 282.774 864.86C249.803 864.86 223.074 891.588 223.074 924.56C223.074 957.531 249.803 984.26 282.774 984.26Z" fill="#FCCE44"/>
<path d="M1133.45 411.72C1166.26 411.72 1192.85 385.126 1192.85 352.32C1192.85 319.514 1166.26 292.92 1133.45 292.92C1100.65 292.92 1074.05 319.514 1074.05 352.32C1074.05 385.126 1100.65 411.72 1133.45 411.72Z" fill="#FCCE44"/>
<path d="M1341.1 559.25C1363.05 559.25 1380.84 541.458 1380.84 519.51C1380.84 497.562 1363.05 479.77 1341.1 479.77C1319.16 479.77 1301.36 497.562 1301.36 519.51C1301.36 541.458 1319.16 559.25 1341.1 559.25Z" fill="#0083C8"/>
<path d="M1234.14 384.31C1257.16 384.31 1275.83 365.645 1275.83 342.62C1275.83 319.595 1257.16 300.93 1234.14 300.93C1211.11 300.93 1192.45 319.595 1192.45 342.62C1192.45 365.645 1211.11 384.31 1234.14 384.31Z" fill="#0083C8"/>
<path d="M1061.06 341.43C1071.41 341.43 1079.8 333.04 1079.8 322.69C1079.8 312.34 1071.41 303.95 1061.06 303.95C1050.71 303.95 1042.32 312.34 1042.32 322.69C1042.32 333.04 1050.71 341.43 1061.06 341.43Z" fill="#C64F4B"/>
<path d="M809.334 484.98C819.684 484.98 828.074 476.59 828.074 466.24C828.074 455.89 819.684 447.5 809.334 447.5C798.984 447.5 790.594 455.89 790.594 466.24C790.594 476.59 798.984 484.98 809.334 484.98Z" fill="#C64F4B"/>
<path d="M841.053 1134.66C870.015 1134.66 893.493 1111.18 893.493 1082.22C893.493 1053.26 870.015 1029.78 841.053 1029.78C812.091 1029.78 788.613 1053.26 788.613 1082.22C788.613 1111.18 812.091 1134.66 841.053 1134.66Z" fill="white"/>
<path d="M841.053 1031.28C851.129 1031.28 860.978 1034.26 869.357 1039.86C877.735 1045.46 884.266 1053.41 888.123 1062.72C891.98 1072.03 892.99 1082.27 891.026 1092.15C889.061 1102.03 884.211 1111.11 877.087 1118.24C869.963 1125.36 860.887 1130.21 851.005 1132.18C841.123 1134.15 830.88 1133.14 821.572 1129.28C812.263 1125.43 804.307 1118.9 798.709 1110.52C793.111 1102.14 790.123 1092.3 790.123 1082.22C790.139 1068.72 795.51 1055.77 805.057 1046.22C814.605 1036.67 827.55 1031.3 841.053 1031.28ZM841.053 1028.28C830.385 1028.28 819.956 1031.44 811.086 1037.37C802.215 1043.3 795.302 1051.72 791.219 1061.58C787.137 1071.43 786.068 1082.28 788.15 1092.74C790.231 1103.21 795.368 1112.82 802.912 1120.36C810.456 1127.91 820.067 1133.04 830.53 1135.12C840.994 1137.21 851.839 1136.14 861.695 1132.05C871.552 1127.97 879.976 1121.06 885.903 1112.19C891.83 1103.32 894.993 1092.89 894.993 1082.22C894.993 1075.14 893.598 1068.12 890.887 1061.58C888.177 1055.03 884.203 1049.09 879.195 1044.08C874.186 1039.07 868.24 1035.1 861.695 1032.39C855.151 1029.68 848.137 1028.28 841.053 1028.28Z" fill="#170C2C"/>
<path d="M1562.29 211.22C1562.29 724 1263.63 1139.69 895.213 1139.69C526.793 1139.69 228.133 724 228.133 211.22H1562.29Z" stroke="#170C2C" stroke-width="3" stroke-miterlimit="10"/>
<path d="M820.553 126.36C784.033 126.36 768.853 192.61 768.853 192.61C768.853 192.61 729.013 177.49 687.063 188.72C656.513 196.9 665.393 252.13 671.063 251.79C678.063 251.38 677.883 217.95 677.883 217.95C677.883 217.95 679.083 260.28 688.033 259.85C694.623 259.54 694.383 216.62 694.383 216.62C694.383 216.62 697.013 252.15 704.143 252C710.143 251.87 709.553 217.54 709.553 217.54" stroke="#170C2C" stroke-width="3" stroke-miterlimit="10"/>
<path d="M836.445 160.31L817.055 211.23" stroke="#170C2C" stroke-width="3" stroke-miterlimit="10"/>
<path d="M982.113 160.31L1001.5 211.23" stroke="#170C2C" stroke-width="3" stroke-miterlimit="10"/>
<path d="M1007.42 123.69C1041.06 122.87 1059.93 211.22 1059.93 211.22" stroke="#170C2C" stroke-width="3" stroke-miterlimit="10"/>
<path d="M1141.69 202.72C1144.01 210.91 1143.56 245.72 1134.49 246.85C1128.69 247.58 1127.04 216.85 1127.04 216.85C1127.04 216.85 1128.04 255.74 1120.51 257.08C1112.98 258.42 1109.77 216.34 1109.77 216.34C1109.77 216.34 1104.5 246.34 1098.03 247.12C1091.56 247.9 1088.03 216.37 1092.69 206.79C1096.1 199.72 1104.55 192.74 1116.58 191.21C1129.94 189.48 1139.68 195.63 1141.69 202.72Z" stroke="#170C2C" stroke-width="3" stroke-linejoin="bevel"/>
</g>
<defs>
<clipPath id="clip0">
<rect width="1670.14" height="1141.19" fill="white" transform="translate(0.773438)"/>
</clipPath>
</defs>
</svg>
