<svg width="137" height="36" viewBox="0 0 137 36" xmlns="http://www.w3.org/2000/svg"> <path d="M49.204 15.662C47.51 15.86 46.586 17.312 46.608 18.566C46.63 20.194 47.576 21.558 49.27 21.69C50.458 21.778 51.58 21.03 51.954 19.974L54.814 20.81C53.978 23.208 51.778 24.66 49.138 24.55C46.212 24.44 43.66 22.24 43.66 18.544C43.66 15.31 46.476 12.78 49.27 12.758C52.482 12.736 54.088 14.716 54.704 16.564L51.932 17.312C51.118 15.816 49.974 15.574 49.204 15.662ZM58.2224 24.088L55.3624 24.066V13.308H58.2224V14.914C58.5744 14.056 59.1024 13.528 60.1804 13.132C60.9724 12.846 62.3144 12.912 63.0624 13.352L62.2704 15.97C61.3904 15.552 59.9384 15.486 59.1024 16.432C58.3544 17.29 58.2224 17.928 58.2224 20.788V24.088ZM66.399 24.44C67.983 24.44 68.973 23.538 69.457 22.856L69.545 24.11H72.427L72.361 16.894C72.361 15.354 71.503 13.946 69.501 13.198C67.983 12.626 66.135 12.846 65.013 13.484C63.451 14.364 62.857 15.552 62.703 16.454L65.277 17.004C65.541 15.596 66.641 15.002 68.027 15.354C69.545 15.75 69.303 17.004 68.995 17.246C68.687 17.488 67.411 17.598 66.333 17.752C63.957 18.06 62.285 19.138 62.527 21.536C62.769 23.318 64.067 24.44 66.399 24.44ZM67.653 22.13C66.355 22.394 65.409 21.998 65.409 20.942C65.409 19.468 67.147 19.996 69.501 19.622C69.655 20.722 69.061 21.844 67.653 22.13ZM80.1225 10.756L80.7605 7.896C78.3185 7.192 76.2065 8.226 75.2825 9.832C74.9085 10.382 74.7105 11.218 74.7105 12.252C74.7105 13 74.4905 13.198 73.7865 13.198H72.9725L72.9945 15.728H74.7545V24.11L77.7685 24.088V15.728H80.2325L80.2105 13.198H77.7905C77.7905 11.922 77.4605 10.316 80.1225 10.756ZM87.6422 23.78L86.8282 21.272C86.3662 21.558 85.4202 21.734 84.9142 21.162C84.6062 20.81 84.5622 20.502 84.5622 18.984V15.772H87.1582V13.242H84.5842V9.986H81.7902V12.516C81.7902 13 81.6362 13.242 80.9542 13.242H79.7662V15.772H81.6582V20.81C81.6582 22.064 82.3842 23.802 84.3642 24.198C85.9922 24.528 86.7842 24.11 87.6422 23.78ZM102.547 13.264H105.627L102.217 24.132H99.0935L96.8275 16.784L94.6055 24.11H91.5035L87.9615 13.22H91.0415L93.1755 20.282L95.4415 13.154H98.3455L100.633 20.37L102.547 13.264ZM105.062 18.61C105.062 21.778 107.57 24.484 110.848 24.484C114.104 24.484 116.612 21.778 116.612 18.61C116.612 15.442 114.104 12.868 110.848 12.868C107.57 12.868 105.062 15.442 105.062 18.61ZM107.966 18.632C107.966 16.784 109.374 15.53 110.87 15.53C112.366 15.53 113.752 16.784 113.752 18.632C113.752 20.612 112.366 21.778 110.87 21.778C109.374 21.778 107.966 20.612 107.966 18.632ZM120.242 24.088L117.382 24.066V13.308H120.242V14.914C120.594 14.056 121.122 13.528 122.2 13.132C122.992 12.846 124.334 12.912 125.082 13.352L124.29 15.97C123.41 15.552 121.958 15.486 121.122 16.432C120.374 17.29 120.242 17.928 120.242 20.788V24.088ZM132.577 24.11H136.493L131.565 18.258L135.899 13.176H132.357L128.463 17.444V8.006H125.405V24.11H128.441V19.182L132.577 24.11Z"></path> <path fill-rule="evenodd" clip-rule="evenodd" d="M36 18C36 27.9411 27.9411 36 18 36C8.05888 36 0 27.9411 0 18C0 8.05888 8.05888 0 18 0C27.9411 0 36 8.05888 36 18ZM18.0839 20.5583C21.4015 15.8667 21.5479 13.0233 18.0839 8C14.5537 13.1305 15.0088 15.8499 18.0839 20.5583ZM16.5085 26.6697C17.0358 20.9478 15.741 18.4122 10.2294 15.7939C9.73741 22.0021 11.4912 24.1297 16.5085 26.6697ZM19.6807 26.6697C19.1534 20.9478 20.4483 18.4122 25.9599 15.7939C26.4518 22.0021 24.6981 24.1297 19.6807 26.6697Z"></path> </svg>