<svg width="1454" height="1051" viewBox="0 0 1454 1051" fill="none" xmlns="http://www.w3.org/2000/svg">
<path d="M816.74 80.3595C831.746 80.3595 843.91 68.1951 843.91 53.1895C843.91 38.184 831.746 26.0195 816.74 26.0195C801.735 26.0195 789.57 38.184 789.57 53.1895C789.57 68.1951 801.735 80.3595 816.74 80.3595Z" fill="#F7C9D6"/>
<path d="M82.42 372.18C97.4256 372.18 109.59 360.015 109.59 345.01C109.59 330.004 97.4256 317.84 82.42 317.84C67.4144 317.84 55.25 330.004 55.25 345.01C55.25 360.015 67.4144 372.18 82.42 372.18Z" fill="#F7C9D6"/>
<path d="M609.58 223.21C650.18 125.65 683.25 37.2103 709.58 35.1403C732.17 33.3803 721.73 101.65 742.5 104.5C763.27 107.35 845.85 -3.08969 877.22 1.65031C908.59 6.39031 939.86 267.95 955.55 269.76C971.24 271.57 974.34 139.57 994.27 140.57C1014.2 141.57 1020.09 270.01 1020.09 270.01" stroke="#AE9FD3" stroke-width="3" stroke-miterlimit="10"/>
<path d="M42.9004 418.37C42.9004 418.37 96.9004 297.12 196.56 310.44C296.22 323.76 310.72 511.77 437.74 478.44C484.41 466.17 525.82 403.7 562.36 329.37" stroke="#AE9FD3" stroke-width="3" stroke-miterlimit="10"/>
<path d="M639.28 579.31C615.15 656.81 495.22 710.12 416.49 682.97C402.612 678.336 389.918 670.717 379.3 660.65C373.533 655.095 368.493 648.832 364.3 642.01C346.8 613.65 371.8 578.91 386.14 527.52C401.76 471.37 372.69 424.81 412.94 398.37C420.563 393.338 428.8 389.305 437.45 386.37C462.7 377.79 489.74 379.31 515.65 387.96C594.09 414.06 662.27 505.46 639.28 579.31Z" fill="#F7C9D6"/>
<path d="M362.52 595.8C362.52 595.8 434.2 545.88 446.41 550.8C458.62 555.72 424.58 670.59 424.58 670.59" stroke="white" stroke-width="2" stroke-miterlimit="10"/>
<path d="M442.73 384.67C442.73 384.67 405.09 480.96 430.53 505.83C455.97 530.7 540.89 435.93 540.89 435.93C540.89 435.93 515.45 474.5 518.73 494.19C522.01 513.88 616.42 467.08 616.42 467.08" stroke="white" stroke-width="2" stroke-miterlimit="10"/>
<path d="M501.04 578.14C511.042 578.14 519.15 567.059 519.15 553.39C519.15 539.721 511.042 528.64 501.04 528.64C491.038 528.64 482.93 539.721 482.93 553.39C482.93 567.059 491.038 578.14 501.04 578.14Z" fill="white"/>
<path d="M54.35 626.65C84.3667 626.65 108.7 602.317 108.7 572.3C108.7 542.283 84.3667 517.95 54.35 517.95C24.3333 517.95 0 542.283 0 572.3C0 602.317 24.3333 626.65 54.35 626.65Z" fill="#FCCE44"/>
<path d="M1408.31 547.54C1396.71 547.518 1385.59 542.887 1377.4 534.666C1369.21 526.445 1364.62 515.308 1364.64 503.705C1364.67 492.102 1369.3 480.983 1377.52 472.794C1385.74 464.605 1396.88 460.018 1408.48 460.04H1408.65C1420.14 460.235 1431.09 464.941 1439.14 473.141C1447.18 481.342 1451.68 492.379 1451.66 503.869C1451.64 515.358 1447.09 526.378 1439.02 534.548C1430.94 542.717 1419.97 547.38 1408.48 547.53L1408.31 547.54Z" fill="white"/>
<path d="M1408.48 461.54H1408.65C1419.86 461.563 1430.59 466.036 1438.5 473.975C1446.41 481.914 1450.84 492.67 1450.82 503.875C1450.79 515.081 1446.32 525.818 1438.38 533.725C1430.44 541.633 1419.69 546.063 1408.48 546.04H1408.31C1397.11 546.018 1386.37 541.545 1378.46 533.605C1370.55 525.666 1366.12 514.911 1366.15 503.705C1366.17 492.5 1370.64 481.762 1378.58 473.855C1386.52 465.947 1397.28 461.518 1408.48 461.54ZM1408.48 458.54C1396.48 458.516 1384.96 463.261 1376.46 471.73C1367.95 480.199 1363.16 491.699 1363.14 503.7C1363.12 515.701 1367.86 527.22 1376.33 535.723C1384.8 544.226 1396.3 549.016 1408.3 549.04H1408.48C1420.48 549.064 1432 544.32 1440.5 535.85C1449.01 527.381 1453.8 515.881 1453.82 503.88C1453.84 491.879 1449.1 480.36 1440.63 471.857C1432.16 463.354 1420.66 458.564 1408.66 458.54H1408.48Z" fill="#170C2C"/>
<path d="M1300.78 430.72C1300.69 466.029 1287.54 500.057 1263.86 526.25C1256.61 534.284 1248.48 541.479 1239.62 547.7C1218.44 562.538 1193.64 571.376 1167.85 573.282C1142.06 575.187 1116.23 570.088 1093.09 558.523C1069.96 546.959 1050.38 529.359 1036.43 507.584C1022.47 485.809 1014.66 460.669 1013.82 434.82C1013.76 433.08 1013.73 431.34 1013.74 429.58C1014.5 391.927 1030.03 356.081 1056.98 329.775C1083.93 303.468 1120.14 288.809 1157.8 288.958C1195.46 289.108 1231.55 304.054 1258.29 330.574C1285.03 357.094 1300.28 393.062 1300.74 430.72H1300.78Z" fill="#FCCE44"/>
<path d="M1013.82 434.82C1013.76 433.08 1013.73 431.34 1013.74 429.58C1013.77 418.602 1015.06 407.664 1017.59 396.98C1026.5 392.32 1033.59 390.98 1036.53 394.16C1041.78 399.81 1031.66 417.77 1013.82 434.82Z" fill="white"/>
<path d="M1156.84 443.089C1161.78 430.735 1151.16 414.875 1133.13 407.664C1115.09 400.454 1096.47 404.624 1091.53 416.978C1086.59 429.332 1097.21 445.192 1115.24 452.402C1133.28 459.612 1151.9 455.442 1156.84 443.089Z" fill="white"/>
<path d="M1233.63 352.295C1239.4 347.124 1239.25 337.563 1233.31 330.941C1227.37 324.318 1217.88 323.142 1212.12 328.313C1206.35 333.484 1206.5 343.044 1212.44 349.667C1218.38 356.289 1227.87 357.466 1233.63 352.295Z" fill="white"/>
<path d="M1294.28 472.96C1269.63 435.24 1229.59 381.85 1205.28 390.64C1168.45 403.98 1183.28 538.05 1171.83 539.46C1160.38 540.87 1143.65 508.35 1132.23 511.76C1119.52 515.56 1108.42 545.19 1102.8 563" stroke="white" stroke-width="2" stroke-miterlimit="10"/>
<path d="M1045.87 339.65C1065.72 359.7 1086.61 377.51 1094.46 372.97C1106.08 366.25 1099.95 324.38 1099.95 324.38C1099.95 324.38 1134.41 386.93 1157.06 379.99C1172.36 375.3 1155.33 312.99 1147.48 286.99" stroke="white" stroke-width="2" stroke-linejoin="round"/>
<path d="M417.571 286.01L289.801 238.39L249.631 223.43L152.311 187.16L354.581 33.7196L382.741 12.3496L386.531 42.0896L417.571 286.01Z" fill="#FCCE44"/>
<path d="M1105.04 657.46L1402.88 658.64L1275.04 888.01L1105.04 657.46Z" fill="#F7C9D6"/>
<path d="M1339.55 658.37C1339.55 658.37 1287.23 684.68 1285.86 705.04C1284.49 725.4 1327.27 734.89 1327.27 734.89C1327.27 734.89 1287.43 739.79 1281.66 776.73C1276.48 809.97 1298.42 846.05 1298.42 846.05" stroke="white" stroke-width="2" stroke-miterlimit="10"/>
<path d="M249.431 740.14L196.811 967.27L434.821 911.73L249.431 740.14Z" fill="#FCCE44"/>
<path d="M325.359 886.55C325.359 886.55 444.909 1034.14 496.789 1032.15C518.639 1031.32 485.309 976.72 497.019 974C508.729 971.28 541.739 1024.95 582.429 1004.8C645.569 973.54 575.429 780.46 708.879 717.3C842.329 654.14 899.989 766.98 976.589 771.89C1053.19 776.8 1219.09 600.24 1281.85 609.71C1344.61 619.18 1146.61 883.95 1185.48 935.18C1207.69 964.45 1259.4 917.01 1279.68 924.48C1299.96 931.95 1268.44 965.97 1285.96 971.58C1303.48 977.19 1429.3 904.76 1429.3 904.76" stroke="#AE9FD3" stroke-width="3" stroke-miterlimit="10"/>
<path d="M365.803 126.13C370.213 115.894 367.608 104.934 359.985 101.649C352.362 98.3646 342.606 103.999 338.196 114.235C333.786 124.47 336.391 135.43 344.014 138.715C351.637 142 361.393 136.365 365.803 126.13Z" fill="#DD6464"/>
<path d="M1068.15 865.36L1071.59 942.67L1030.45 1045.85L1027.01 968.54L1068.15 865.36Z" fill="#0083C8"/>
<path d="M994.37 1050.21L709.7 936.74L706.26 859.43L990.93 972.9L994.37 1050.21Z" fill="#FCCE44"/>
<path d="M748.155 758.289L708.195 858.55L990.073 970.893L1030.03 870.633L748.155 758.289Z" fill="white"/>
<path d="M749.02 760.28L1028.09 871.52L989.24 969L710.14 857.75L749 760.28H749.02ZM747.32 756.38L706.25 859.38L990.91 972.85L1031.99 869.85L747.34 756.37L747.32 756.38Z" fill="#170C2C"/>
<path d="M1074.28 101.98L1094.7 65.3495L1214.62 35.0195L1194.19 71.6495L1074.28 101.98Z" fill="#FCCE44"/>
<path d="M1260.47 205.72L1280.89 169.08L1250.56 49.1699L1230.14 85.7999L1260.47 205.72Z" fill="#0083C8"/>
<path d="M1229.05 87.7346L1112.04 117.32L1141.63 234.328L1258.64 204.742L1229.05 87.7346Z" fill="white"/>
<path d="M1227.97 89.4495L1256.82 203.54L1142.73 232.37L1113.87 118.27L1227.97 89.4195V89.4495ZM1230.14 85.7695L1110.22 116.1L1140.55 236.02L1260.47 205.69L1230.14 85.7695Z" fill="#170C2C"/>
<path d="M1105.04 657.46L1207.98 657.87L1177.36 755.54L1105.04 657.46Z" fill="#F7C9D6"/>
<path d="M1263.86 526.25C1256.61 534.284 1248.48 541.479 1239.62 547.7C1237.79 543.08 1236.07 538.1 1234.53 532.86C1226.53 505.42 1226.39 481.28 1234.34 478.95C1242.29 476.62 1255.27 496.95 1263.34 524.41C1263.51 525.03 1263.69 525.64 1263.86 526.25Z" fill="white"/>
<path d="M121.248 483.865L16.2676 731.665L121.374 776.194L226.355 528.394L121.248 483.865Z" fill="white"/>
<path d="M122.091 485.86L224.391 529.22L120.571 774.22L18.2308 730.9L122.091 485.86ZM120.501 481.93L14.3008 732.49L122.161 778.19L228.321 527.63L120.461 481.93H120.501Z" fill="#170C2C"/>
<path d="M228.307 527.6C232.894 516.774 212.467 497.768 182.682 485.15C152.898 472.531 125.034 471.079 120.448 481.905C115.861 492.732 136.288 511.738 166.072 524.356C195.857 536.975 223.721 538.427 228.307 527.6Z" fill="#0083C8"/>
<path d="M122.157 778.15C126.744 767.324 106.317 748.318 76.532 735.699C46.7474 723.081 18.8839 721.629 14.2972 732.455C9.71046 743.282 30.1374 762.288 59.9221 774.906C89.7068 787.524 117.57 788.977 122.157 778.15Z" fill="#F7C9D6"/>
<path d="M400.16 149.18C400.16 149.18 326.66 155.57 324.84 171.68C323.02 187.79 369.77 195.54 370.15 198.79C370.53 202.04 317.95 211.53 319.57 225.38C321.19 239.23 413.81 265.55 413.81 265.55" stroke="#DD6464" stroke-width="2" stroke-miterlimit="10"/>
<path d="M312.69 65.5001C312.69 65.5001 373.69 47.4001 374.83 57.3901C376.36 70.5101 248.66 120.93 248.83 129.58C249 138.23 293.83 132.58 294.92 138.64C296.01 144.7 186.01 199.73 186.01 199.73" stroke="#DD6464" stroke-width="2" stroke-miterlimit="10"/>
<path d="M289.801 238.37L249.631 223.37C257.221 199.85 269.131 183.93 278.881 185.99C289.461 188.27 293.871 210.86 289.801 238.37Z" fill="#DD6464"/>
<path d="M1138.47 702.8C1138.47 702.8 1183.64 678.29 1203.67 698.46C1225.38 720.37 1190.09 772.74 1190.09 772.74" stroke="white" stroke-width="2" stroke-miterlimit="10"/>
</svg>
