<svg width="24" height="24" viewBox="0 0 24 24" fill="none" xmlns="http://www.w3.org/2000/svg">
<g clip-path="url(#clip0)">
<path d="M22.6755 24C23.407 24 24 23.4069 24 22.6754V1.32457C24 0.592862 23.4069 0 22.6755 0H1.32469C0.592986 0 0.00012207 0.592952 0.00012207 1.32457V22.6753C0.00012207 23.4069 0.592986 23.9999 1.32469 23.9999H22.6755V24Z" fill="#485A96"/>
<path d="M16.5596 24V14.7059H19.6792L20.1463 11.0838H16.5595V8.77123C16.5595 7.72255 16.8507 7.00793 18.3546 7.00793L20.2725 7.00703V3.76746C19.9408 3.7234 18.8022 3.62476 17.4777 3.62476C14.7123 3.62476 12.8191 5.3127 12.8191 8.41262V11.0838H9.69147V14.7059H12.8191V23.9999H16.5596V24Z" fill="white"/>
</g>
<defs>
<clipPath id="clip0">
<rect width="24" height="24" fill="white"/>
</clipPath>
</defs>
</svg>
