<svg width="318" height="374" viewBox="0 0 318 374" fill="none" xmlns="http://www.w3.org/2000/svg">
<path d="M129.932 51.6447C129.932 51.6447 112.982 63.5495 111.786 77.4555C110.589 91.3614 128.004 102.215 128.004 102.215L170.811 83.1438L129.932 51.6447Z" fill="#FCCE44"/>
<path d="M218.226 141.05C218.226 125.886 212 111.344 200.92 100.621C189.839 89.8992 174.81 83.8755 159.14 83.8755C143.469 83.8755 128.44 89.8992 117.359 100.621C106.279 111.344 100.054 125.886 100.054 141.05H218.226Z" fill="#0083C8"/>
<path d="M165.614 94.443L164.557 65.4973C164.557 65.4973 176.114 59.7411 174.006 51.7173C171.898 43.6935 163.436 47.2936 163.436 47.2936C163.436 47.2936 159.37 36.2948 147.107 35.4711C134.844 34.6474 128.164 48.3062 129.081 57.7594C130.443 71.6993 137.523 78.221 151.934 75.0377L151.433 91.2548" fill="#C64F4B"/>
<path d="M137.398 57.522L135.019 63.8063" stroke="#170C2C" stroke-width="3" stroke-miterlimit="10"/>
<path d="M146.772 55.6179L139.861 55.361" stroke="#170C2C" stroke-width="3" stroke-miterlimit="10"/>
<path d="M131.424 55.6616L135.61 55.3174" stroke="#170C2C" stroke-width="3" stroke-miterlimit="10"/>
<path d="M165.238 84.1759C151.609 82.4073 157.808 45.5348 157.808 45.5348C144.664 52.9626 129.932 49.6435 129.932 49.6435C129.932 49.6435 133.667 29.7294 155.97 32.1521C178.272 34.5747 183.19 48.3789 183.19 48.3789C183.19 48.3789 207.034 53.9607 207.36 72.6053C207.685 91.25 193.339 94.4382 193.339 94.4382C193.339 94.4382 180.16 86.114 165.238 84.1759Z" fill="#FCCE44"/>
<path d="M92.1971 136.655C92.1971 136.655 32.42 140.832 24.819 126.916C17.2179 113 26.4613 36.1834 26.4613 36.1834C26.4613 36.1834 17.4232 15.2033 21.9548 12.6159C26.4864 10.0285 34.473 30.7082 34.473 30.7082C34.473 30.7082 29.3355 1.88362 34.0624 1.68496C38.7893 1.4863 44.9483 25.7369 44.9483 25.7369C44.9483 25.7369 49.9556 14.6848 61.6927 17.5387C70.2701 19.6222 72.3732 28.3679 69.4339 29.7246C65.2178 31.6627 62.2284 25.6982 57.6868 27.3262C54.2418 28.5569 53.681 32.5445 54.9228 35.3936C56.6253 39.294 60.6962 40.893 64.3115 38.2087C67.5061 35.8393 65.8136 31.4495 69.4339 29.7246C73.7502 27.675 78.0364 37.385 71.9376 45.0454C66.2343 52.197 53.1803 50.5545 53.1803 50.5545L52.7096 99.453L98.9369 101.144" stroke="#170C2C" stroke-width="3" stroke-miterlimit="10"/>
<path d="M226.082 136.655C226.082 136.655 285.864 140.832 293.46 126.916C301.056 113 291.818 36.1834 291.818 36.1834C291.818 36.1834 300.831 15.2033 296.324 12.6159C291.818 10.0285 283.806 30.7082 283.806 30.7082C283.806 30.7082 288.944 1.88362 284.217 1.68496C279.49 1.4863 273.331 25.7369 273.331 25.7369C273.331 25.7369 268.324 14.6848 256.586 17.5387C248.014 19.6222 245.906 28.3679 248.845 29.7246C253.061 31.6627 256.051 25.6982 260.592 27.3262C264.037 28.5569 264.598 32.5445 263.356 35.3936C261.654 39.294 257.588 40.893 253.968 38.2087C250.773 35.8345 252.465 31.4495 248.845 29.7246C244.529 27.675 240.243 37.385 246.342 45.0405C252.045 52.197 264.598 50.0505 264.598 50.0505L265.069 98.9491L218.841 100.64" stroke="#170C2C" stroke-width="3" stroke-miterlimit="10"/>
<path fill-rule="evenodd" clip-rule="evenodd" d="M159.14 165.345C173.055 165.345 186.724 168.907 198.757 175.669C224.68 190.239 259.891 210.192 294.552 229.878C333.198 251.827 319.834 308.856 275.179 312.524L179.259 320.398L166.32 368.715C165.516 371.721 163.2 373.467 160.64 373.953V261.063L236.848 261.063L181.267 240.858C166.996 235.668 151.263 235.668 136.992 240.858L81.4114 261.063L157.64 261.063V373.953C155.079 373.467 152.763 371.721 151.959 368.715L139.025 320.398L43.1006 312.524C-1.54942 308.856 -14.9189 251.827 23.7274 229.878C58.3878 210.192 93.5991 190.239 119.522 175.669C131.556 168.907 145.224 165.345 159.14 165.345Z" fill="#C64F4B"/>
</svg>
