<svg width="784" height="867" viewBox="0 0 784 867" fill="none" xmlns="http://www.w3.org/2000/svg">
<path d="M388.579 79.2998C388.579 79.2998 347.879 96.6198 338.579 125.64C329.279 154.66 359.889 185.97 359.889 185.97L457.269 165.6L388.579 79.2998Z" fill="black"/>
<path d="M482.27 346.77C499.212 320.457 505.007 288.491 498.38 257.905C491.754 227.318 473.248 200.617 446.935 183.675C420.621 166.733 388.655 160.938 358.069 167.565C327.483 174.191 300.782 192.697 283.84 219.01L482.27 346.77Z" fill="#C64F4B"/>
<path d="M433.089 199.16L453.089 125.16C453.089 125.16 479.679 118.37 479.259 100.31C478.839 82.25 459.669 85.91 459.669 85.91C459.669 85.91 456.669 60.59 431.819 53.04C406.969 45.49 386.559 71.4 383.819 91.92C379.819 122.22 389.209 139.42 420.419 139.46L407.419 179.7" fill="#FCCE44"/>
<path d="M401.079 95.3301L393.119 107.57" stroke="#170C2C" stroke-width="3" stroke-miterlimit="10"/>
<path d="M438.601 178.78C413.331 164.46 448.951 79.4696 448.951 79.4696C418.261 89.0596 389.561 75.0496 389.561 75.0496C389.561 75.0496 406.961 34.4496 451.731 50.1396C496.501 65.8296 499.841 97.5097 499.841 97.5097C499.841 97.5097 546.191 120.64 537.771 160.51C529.351 200.38 480.841 216.83 480.841 216.83C480.841 216.83 458.691 190.16 438.601 178.78Z" fill="black"/>
<path d="M503.83 216.88C503.83 216.88 518.6 218.23 525.91 235.49C533.22 252.75 536.04 319.97 564.24 347.09C592.44 374.21 657.65 379.89 677.41 364.09C698.09 347.55 700.62 329.72 720.32 328.57C740.02 327.42 746.73 339.75 744.87 342.82C743.01 345.89 723.94 345.5 722.08 349.82" stroke="#170C2C" stroke-width="3" stroke-miterlimit="10"/>
<path d="M472.74 375.94C472.74 375.94 553.29 548.94 754.74 403.32" stroke="#170C2C" stroke-width="3" stroke-miterlimit="10"/>
<path d="M73.6406 67.5498C73.6406 67.5498 106.451 175.34 131.641 187.21C156.831 199.08 272.211 220.74 272.211 220.74" stroke="#170C2C" stroke-width="3" stroke-miterlimit="10"/>
<path d="M123.779 34.5098C123.779 34.5098 167.369 119.86 196.869 128.03C226.369 136.2 275.269 131.25 320.249 149.75" stroke="#170C2C" stroke-width="3" stroke-miterlimit="10"/>
<path d="M53.6496 27.4701C53.6496 27.4701 3.40961 23.7801 1.99961 17.8301C0.589606 11.8801 70.3496 6.37012 70.3496 6.37012" stroke="#170C2C" stroke-width="3" stroke-miterlimit="10"/>
<path d="M82.8006 22.2495C82.8006 22.2495 67.5806 32.2495 66.8006 27.5195C66.0206 22.7895 72.8006 2.51953 87.2106 2.36953C101.621 2.21953 128.601 14.4295 120.961 26.2995C113.321 38.1695 96.3406 26.6095 96.3406 26.6095" stroke="#170C2C" stroke-width="3" stroke-miterlimit="10"/>
<path d="M36.0899 25.8096C36.0899 25.8096 35.9399 40.7296 48.4499 42.8096C60.9599 44.8896 79.1999 47.2396 80.4499 41.4996C81.6999 35.7596 64.06 36.4996 62.24 29.4996" stroke="#170C2C" stroke-width="3" stroke-miterlimit="10"/>
<path d="M70.2007 45.1201C70.2007 45.1201 83.3607 52.0201 79.3907 56.2901C76.9107 58.9401 48.4707 42.8301 48.4707 42.8301" stroke="#170C2C" stroke-width="3" stroke-miterlimit="10"/>
<path d="M738.5 320.94C738.5 320.94 776.31 314.81 781.86 326.04C784 330.36 744.98 340.23 744.98 340.23" stroke="#170C2C" stroke-width="3" stroke-miterlimit="10"/>
<path d="M763.009 347.88C763.009 347.88 766.589 383.04 745.009 382.12C739.179 381.87 753.709 357.31 745.119 355.12" stroke="#170C2C" stroke-width="3" stroke-miterlimit="10"/>
<path d="M763.16 370.58C763.16 370.58 771.7 394.53 759.93 398.58C757.27 399.49 757.66 384.28 753.35 382.18" stroke="#170C2C" stroke-width="3" stroke-miterlimit="10"/>
<path d="M393.171 87.7496C393.171 84.8169 391.613 82.4396 389.691 82.4396C387.769 82.4396 386.211 84.8169 386.211 87.7496C386.211 90.6822 387.769 93.0596 389.691 93.0596C391.613 93.0596 393.171 90.6822 393.171 87.7496Z" fill="#170C2C"/>
<path d="M414.116 92.1145C414.128 89.1819 412.579 86.7982 410.657 86.7905C408.735 86.7828 407.168 89.1539 407.156 92.0865C407.144 95.0191 408.693 97.4027 410.615 97.4105C412.537 97.4182 414.104 95.0471 414.116 92.1145Z" fill="#170C2C"/>
<path d="M296.15 379.23C193.63 394.52 49.4498 506.84 56.5598 576.1C63.6698 645.36 230.29 762.63 230.29 762.63C230.29 762.63 202.14 800.98 209.1 830.55L335.49 712.37L221.16 600.75L340.62 523.53L446.16 561.02L411.47 800.89L559.42 866.09C559.42 866.09 549.42 821.74 520.89 805.01C520.89 805.01 628.15 526.36 588.72 460.35C549.29 394.34 396.58 364.26 296.15 379.23Z" fill="black"/>
</svg>
