<svg width="24" height="24" viewBox="0 0 24 24" fill="none" xmlns="http://www.w3.org/2000/svg">
<path d="M6.08577 23.9151C4.65848 23.8502 3.88314 23.6127 3.36743 23.4115C2.6841 23.1455 2.19693 22.8288 1.68407 22.3166C1.17122 21.8045 0.853806 21.3173 0.589176 20.634C0.388029 20.1183 0.150504 19.3429 0.0855946 17.9157C0.0142658 16.3728 0 15.9099 0 12.0011C0 8.09225 0.0156923 7.63004 0.0848813 6.08577C0.14979 4.65848 0.388742 3.88457 0.588463 3.36743C0.854519 2.6841 1.17193 2.19693 1.68336 1.68336C2.1955 1.17122 2.68268 0.853092 3.36672 0.588463C3.88243 0.387315 4.65777 0.14979 6.08506 0.0848813C7.62861 0.0142658 8.09225 0 11.9996 0C15.9085 0 16.3707 0.0156923 17.9149 0.0848813C19.3422 0.14979 20.1161 0.388742 20.6333 0.588463C21.3166 0.853092 21.8038 1.17122 22.3166 1.68336C22.8295 2.1955 23.1455 2.68339 23.4115 3.36672C23.6127 3.88243 23.8502 4.65777 23.9151 6.08506C23.9857 7.62933 24 8.09154 24 12.0004C24 15.9077 23.9857 16.3714 23.9151 17.9157C23.8502 19.3429 23.6113 20.1183 23.4115 20.634C23.1455 21.3173 22.8288 21.8045 22.3166 22.3166C21.8045 22.8288 21.3166 23.1455 20.6333 23.4115C20.1176 23.6127 19.3422 23.8502 17.9149 23.9151C16.3721 23.9857 15.9085 24 11.9996 24C8.09225 24 7.62862 23.9864 6.08577 23.9151Z" fill="url(#paint0_radial)"/>
<path d="M6.08577 23.9151C4.65848 23.8502 3.88314 23.6127 3.36743 23.4115C2.6841 23.1455 2.19693 22.8288 1.68407 22.3166C1.17122 21.8045 0.853806 21.3173 0.589176 20.634C0.388029 20.1183 0.150504 19.3429 0.0855946 17.9157C0.0142658 16.3728 0 15.9099 0 12.0011C0 8.09225 0.0156923 7.63004 0.0848813 6.08577C0.14979 4.65848 0.388742 3.88457 0.588463 3.36743C0.854519 2.6841 1.17193 2.19693 1.68336 1.68336C2.1955 1.17122 2.68268 0.853092 3.36672 0.588463C3.88243 0.387315 4.65777 0.14979 6.08506 0.0848813C7.62861 0.0142658 8.09225 0 11.9996 0C15.9085 0 16.3707 0.0156923 17.9149 0.0848813C19.3422 0.14979 20.1161 0.388742 20.6333 0.588463C21.3166 0.853092 21.8038 1.17122 22.3166 1.68336C22.8295 2.1955 23.1455 2.68339 23.4115 3.36672C23.6127 3.88243 23.8502 4.65777 23.9151 6.08506C23.9857 7.62933 24 8.09154 24 12.0004C24 15.9077 23.9857 16.3714 23.9151 17.9157C23.8502 19.3429 23.6113 20.1183 23.4115 20.634C23.1455 21.3173 22.8288 21.8045 22.3166 22.3166C21.8045 22.8288 21.3166 23.1455 20.6333 23.4115C20.1176 23.6127 19.3422 23.8502 17.9149 23.9151C16.3721 23.9857 15.9085 24 11.9996 24C8.09225 24 7.62862 23.9864 6.08577 23.9151Z" fill="url(#paint1_radial)"/>
<path d="M9.05341 12.0511C9.05341 10.4097 10.3836 9.07881 12.025 9.07881C13.6663 9.07881 14.9972 10.4097 14.9972 12.0511C14.9972 13.6924 13.6663 15.0233 12.025 15.0233C10.3836 15.0233 9.05341 13.6924 9.05341 12.0511ZM7.44666 12.0511C7.44666 14.5797 9.49636 16.6293 12.025 16.6293C14.5536 16.6293 16.6032 14.5797 16.6032 12.0511C16.6032 9.52247 14.5536 7.47278 12.025 7.47278C9.49636 7.47278 7.44673 9.52233 7.44673 12.0511H7.44666ZM15.7146 7.29125C15.7146 7.50286 15.7772 7.70974 15.8947 7.88574C16.0122 8.06173 16.1793 8.19894 16.3747 8.27999C16.5702 8.36105 16.7853 8.38233 16.9929 8.34113C17.2004 8.29992 17.3911 8.1981 17.5408 8.04853C17.6905 7.89896 17.7925 7.70835 17.8339 7.50083C17.8752 7.2933 17.8541 7.07816 17.7732 6.88263C17.6923 6.68709 17.5552 6.51994 17.3793 6.4023C17.2034 6.28467 16.9966 6.22183 16.785 6.22175H16.7846C16.5009 6.22188 16.2289 6.33459 16.0283 6.53512C15.8277 6.73565 15.7149 7.0076 15.7146 7.29125ZM8.42286 19.3086C7.55358 19.269 7.0811 19.1242 6.76711 19.0019C6.35084 18.8398 6.05383 18.6468 5.74155 18.335C5.42928 18.0231 5.23598 17.7264 5.07463 17.3101C4.95223 16.9963 4.80743 16.5236 4.76792 15.6544C4.72469 14.7145 4.71606 14.4322 4.71606 12.0512C4.71606 9.67019 4.72541 9.38866 4.76792 8.44805C4.8075 7.57877 4.95337 7.10708 5.07463 6.7923C5.23669 6.37603 5.4297 6.07902 5.74155 5.76674C6.0534 5.45447 6.35013 5.26117 6.76711 5.09982C7.08096 4.97742 7.55358 4.83263 8.42286 4.79311C9.36269 4.74989 9.64501 4.74125 12.025 4.74125C14.4049 4.74125 14.6875 4.75046 15.6281 4.79325C16.4974 4.83284 16.9691 4.97871 17.2839 5.09997C17.7001 5.26131 17.9972 5.45504 18.3094 5.76689C18.6217 6.07873 18.8143 6.37617 18.9763 6.79245C19.0987 7.10629 19.2435 7.57891 19.2831 8.44819C19.3263 9.3888 19.3349 9.67033 19.3349 12.0513C19.3349 14.4324 19.3263 14.7139 19.2831 15.6545C19.2435 16.5238 19.098 16.9963 18.9763 17.3103C18.8143 17.7265 18.6213 18.0235 18.3094 18.3351C17.9976 18.6467 17.7001 18.84 17.2839 19.002C16.97 19.1244 16.4974 19.2692 15.6281 19.3087C14.6883 19.352 14.406 19.3606 12.025 19.3606C9.64394 19.3606 9.3624 19.352 8.42286 19.3087V19.3086ZM8.34904 3.18901C7.39987 3.23223 6.75128 3.38273 6.18486 3.60314C5.59861 3.83075 5.10166 4.1361 4.60543 4.63155C4.1092 5.127 3.80463 5.62402 3.57702 6.21098C3.35661 6.77775 3.20611 7.42599 3.16288 8.37515C3.11894 9.32582 3.10889 9.62975 3.10889 12.0511C3.10889 14.4724 3.11894 14.7763 3.16288 15.727C3.20611 16.6762 3.35661 17.3244 3.57702 17.8912C3.80463 18.4774 4.10927 18.9753 4.60543 19.4706C5.10159 19.9658 5.5979 20.2707 6.18486 20.499C6.75235 20.7194 7.39987 20.8699 8.34904 20.9131C9.3002 20.9563 9.60364 20.9671 12.025 20.9671C14.4463 20.9671 14.7502 20.9571 15.7009 20.9131C16.6501 20.8699 17.2983 20.7194 17.8651 20.499C18.4513 20.2707 18.9482 19.966 19.4445 19.4706C19.9407 18.9751 20.2446 18.4774 20.4729 17.8912C20.6933 17.3244 20.8445 16.6761 20.887 15.727C20.9303 14.7756 20.9403 14.4724 20.9403 12.0511C20.9403 9.62975 20.9303 9.32582 20.887 8.37515C20.8438 7.42591 20.6933 6.7774 20.4729 6.21098C20.2446 5.62473 19.9399 5.12778 19.4445 4.63155C18.949 4.13532 18.4513 3.83075 17.8658 3.60314C17.2983 3.38273 16.65 3.23152 15.7016 3.18901C14.7508 3.14557 14.447 3.13501 12.026 3.13501C9.60506 3.13501 9.30056 3.14507 8.3494 3.18901" fill="white"/>
<defs>
<radialGradient id="paint0_radial" cx="0" cy="0" r="1" gradientUnits="userSpaceOnUse" gradientTransform="translate(1.55326 23.4742) scale(30.4711)">
<stop offset="0.09" stop-color="#FA8F21"/>
<stop offset="0.78" stop-color="#D82D7E"/>
</radialGradient>
<radialGradient id="paint1_radial" cx="0" cy="0" r="1" gradientUnits="userSpaceOnUse" gradientTransform="translate(16.624 22.7036) scale(26.8148)">
<stop offset="0.64" stop-color="#8C3AAA" stop-opacity="0"/>
<stop offset="1" stop-color="#8C3AAA"/>
</radialGradient>
</defs>
</svg>
