<svg width="33" height="40" viewBox="0 0 33 40" fill="none" xmlns="http://www.w3.org/2000/svg">
<g clip-path="url(#clip0)">
<g filter="url(#filter0_d)">
<path d="M12.5302 39.7618H0V0.008058H12.5302V0.00285392C12.6091 0.00285392 12.6782 0.00195364 12.7413 0.00195364C14.087 0.00164977 15.4293 0.136943 16.7478 0.405786C19.2909 0.926605 21.7064 1.94308 23.8567 3.39721C27.0531 5.55492 29.5551 8.59325 31.0597 12.1441C31.5681 13.3468 31.9561 14.5969 32.2182 15.8761C32.7567 18.5201 32.7567 21.2455 32.2182 23.8895C31.6973 26.4324 30.6808 28.8479 29.2267 30.9982C27.069 34.1945 24.0307 36.6966 20.4798 38.2012C19.2771 38.7095 18.027 39.0976 16.7478 39.3596C15.4293 39.6284 14.087 39.7637 12.7413 39.7634C12.6716 39.7629 12.6005 39.7623 12.5302 39.7618Z" fill="#001029"/>
</g>
<path fill-rule="evenodd" clip-rule="evenodd" d="M20.0566 19.8771C20.0566 19.2811 20.5399 18.7979 21.1359 18.7979H28.3312C28.9272 18.7979 29.4105 19.2811 29.4105 19.8771C29.4105 20.4732 28.9272 20.9564 28.3312 20.9564H21.1359C20.5399 20.9564 20.0566 20.4732 20.0566 19.8771Z" fill="#EF635F"/>
<path fill-rule="evenodd" clip-rule="evenodd" d="M14.9761 12.6811C14.5546 12.2597 14.5546 11.5763 14.9761 11.1548L20.0639 6.06699C20.4854 5.6455 21.1687 5.6455 21.5902 6.06699C22.0117 6.48848 22.0117 7.17184 21.5902 7.59333L16.5024 12.6811C16.0809 13.1026 15.3975 13.1026 14.9761 12.6811Z" fill="#FBDA88"/>
<path fill-rule="evenodd" clip-rule="evenodd" d="M14.9751 26.939C15.3966 26.5175 16.08 26.5175 16.5015 26.939L21.5893 32.0268C22.0107 32.4482 22.0107 33.1316 21.5893 33.5531C21.1678 33.9746 20.4844 33.9746 20.0629 33.5531L14.9751 28.4653C14.5536 28.0438 14.5536 27.3604 14.9751 26.939Z" fill="#2773E6"/>
<path fill-rule="evenodd" clip-rule="evenodd" d="M1.70898 20.057C1.70898 19.3616 2.27273 18.7979 2.96815 18.7979H14.8403C15.5357 18.7979 16.0995 19.3616 16.0995 20.057C16.0995 20.7524 15.5357 21.3162 14.8403 21.3162H2.96815C2.27273 21.3162 1.70898 20.7524 1.70898 20.057Z" fill="white"/>
<path fill-rule="evenodd" clip-rule="evenodd" d="M9.60182 14.7292C10.0936 14.2375 10.8908 14.2375 11.3826 14.7292L15.58 18.9267C16.0717 19.4184 16.0717 20.2157 15.58 20.7074C15.0883 21.1991 14.291 21.1991 13.7993 20.7074L9.60182 16.51C9.11009 16.0182 9.11009 15.221 9.60182 14.7292Z" fill="white"/>
<path fill-rule="evenodd" clip-rule="evenodd" d="M9.60326 25.2038C9.11152 24.7121 9.11152 23.9148 9.60326 23.4231L13.8007 19.2257C14.2924 18.7339 15.0897 18.7339 15.5814 19.2257C16.0732 19.7174 16.0732 20.5147 15.5814 21.0064L11.384 25.2038C10.8923 25.6956 10.095 25.6956 9.60326 25.2038Z" fill="white"/>
<path d="M20.6865 31.4795C20.8644 31.4795 21.0383 31.5322 21.1862 31.6311C21.3341 31.7299 21.4494 31.8704 21.5175 32.0347C21.5855 32.1991 21.6033 32.3799 21.5686 32.5544C21.5339 32.7288 21.4483 32.8891 21.3225 33.0149C21.1967 33.1407 21.0365 33.2263 20.862 33.261C20.6875 33.2957 20.5067 33.2779 20.3423 33.2098C20.178 33.1418 20.0375 33.0265 19.9387 32.8786C19.8399 32.7307 19.7871 32.5568 19.7871 32.3789C19.7871 32.1404 19.8819 31.9116 20.0505 31.7429C20.2192 31.5743 20.448 31.4795 20.6865 31.4795V31.4795Z" fill="#2773E6"/>
<path d="M20.6865 5.93652C20.8644 5.93652 21.0383 5.98927 21.1862 6.0881C21.3341 6.18693 21.4494 6.3274 21.5175 6.49174C21.5855 6.65609 21.6033 6.83693 21.5686 7.01139C21.5339 7.18586 21.4483 7.34612 21.3225 7.4719C21.1967 7.59769 21.0365 7.68335 20.862 7.71805C20.6875 7.75275 20.5067 7.73494 20.3423 7.66687C20.178 7.5988 20.0375 7.48352 19.9387 7.33561C19.8399 7.1877 19.7871 7.01381 19.7871 6.83593C19.7871 6.59739 19.8819 6.36862 20.0505 6.19995C20.2192 6.03128 20.448 5.93652 20.6865 5.93652V5.93652Z" fill="#FBDA88"/>
<path d="M27.5225 19.0674C27.7003 19.0674 27.8742 19.1201 28.0221 19.219C28.17 19.3178 28.2853 19.4583 28.3534 19.6226C28.4215 19.7869 28.4393 19.9678 28.4046 20.1422C28.3699 20.3167 28.2842 20.477 28.1584 20.6028C28.0326 20.7285 27.8724 20.8142 27.6979 20.8489C27.5235 20.8836 27.3426 20.8658 27.1783 20.7977C27.0139 20.7296 26.8735 20.6144 26.7746 20.4665C26.6758 20.3186 26.623 20.1447 26.623 19.9668C26.623 19.7282 26.7178 19.4995 26.8865 19.3308C27.0551 19.1621 27.2839 19.0674 27.5225 19.0674V19.0674Z" fill="#EF635F"/>
</g>
<defs>
<filter id="filter0_d" x="0" y="0.00195312" width="32.6221" height="39.7615" filterUnits="userSpaceOnUse" color-interpolation-filters="sRGB">
<feFlood flood-opacity="0" result="BackgroundImageFix"/>
<feColorMatrix in="SourceAlpha" type="matrix" values="0 0 0 0 0 0 0 0 0 0 0 0 0 0 0 0 0 0 127 0"/>
<feOffset/>
<feColorMatrix type="matrix" values="0 0 0 0 0 0 0 0 0 0 0 0 0 0 0 0 0 0 0.25 0"/>
<feBlend mode="normal" in2="BackgroundImageFix" result="effect1_dropShadow"/>
<feBlend mode="normal" in="SourceGraphic" in2="effect1_dropShadow" result="shape"/>
</filter>
<clipPath id="clip0">
<rect width="32.6222" height="39.7617" fill="white"/>
</clipPath>
</defs>
</svg>
