<svg width="319" height="40" viewBox="0 0 319 40" fill="none" xmlns="http://www.w3.org/2000/svg">
<g clip-path="url(#clip0)">
<g filter="url(#filter0_d)">
<path d="M12.5302 39.7618H0V0.008058H12.5302V0.00285392C12.6091 0.00285392 12.6782 0.00195364 12.7413 0.00195364C14.087 0.00164977 15.4293 0.136943 16.7478 0.405786C19.2909 0.926605 21.7064 1.94308 23.8567 3.39721C27.0531 5.55492 29.5551 8.59325 31.0597 12.1441C31.5681 13.3468 31.9561 14.5969 32.2182 15.8761C32.7567 18.5201 32.7567 21.2455 32.2182 23.8895C31.6973 26.4324 30.6808 28.8479 29.2267 30.9982C27.069 34.1945 24.0307 36.6966 20.4798 38.2012C19.2771 38.7095 18.027 39.0976 16.7478 39.3596C15.4293 39.6284 14.087 39.7637 12.7413 39.7634C12.6716 39.7629 12.6005 39.7623 12.5302 39.7618Z" fill="#001029"/>
</g>
<path fill-rule="evenodd" clip-rule="evenodd" d="M20.0566 19.8771C20.0566 19.2811 20.5399 18.7979 21.1359 18.7979H28.3312C28.9272 18.7979 29.4105 19.2811 29.4105 19.8771C29.4105 20.4732 28.9272 20.9564 28.3312 20.9564H21.1359C20.5399 20.9564 20.0566 20.4732 20.0566 19.8771Z" fill="#EF635F"/>
<path fill-rule="evenodd" clip-rule="evenodd" d="M14.9761 12.6811C14.5546 12.2597 14.5546 11.5763 14.9761 11.1548L20.0639 6.06699C20.4854 5.6455 21.1687 5.6455 21.5902 6.06699C22.0117 6.48848 22.0117 7.17184 21.5902 7.59333L16.5024 12.6811C16.0809 13.1026 15.3975 13.1026 14.9761 12.6811Z" fill="#FBDA88"/>
<path fill-rule="evenodd" clip-rule="evenodd" d="M14.9751 26.939C15.3966 26.5175 16.08 26.5175 16.5015 26.939L21.5893 32.0268C22.0107 32.4482 22.0107 33.1316 21.5893 33.5531C21.1678 33.9746 20.4844 33.9746 20.0629 33.5531L14.9751 28.4653C14.5536 28.0438 14.5536 27.3604 14.9751 26.939Z" fill="#2773E6"/>
<path fill-rule="evenodd" clip-rule="evenodd" d="M1.70898 20.057C1.70898 19.3616 2.27273 18.7979 2.96815 18.7979H14.8403C15.5357 18.7979 16.0995 19.3616 16.0995 20.057C16.0995 20.7524 15.5357 21.3162 14.8403 21.3162H2.96815C2.27273 21.3162 1.70898 20.7524 1.70898 20.057Z" fill="white"/>
<path fill-rule="evenodd" clip-rule="evenodd" d="M9.60182 14.7292C10.0936 14.2375 10.8908 14.2375 11.3826 14.7292L15.58 18.9267C16.0717 19.4184 16.0717 20.2157 15.58 20.7074C15.0883 21.1991 14.291 21.1991 13.7993 20.7074L9.60182 16.51C9.11009 16.0182 9.11009 15.221 9.60182 14.7292Z" fill="white"/>
<path fill-rule="evenodd" clip-rule="evenodd" d="M9.60326 25.2038C9.11152 24.7121 9.11152 23.9148 9.60326 23.4231L13.8007 19.2257C14.2924 18.7339 15.0897 18.7339 15.5814 19.2257C16.0732 19.7174 16.0732 20.5147 15.5814 21.0064L11.384 25.2038C10.8923 25.6956 10.095 25.6956 9.60326 25.2038Z" fill="white"/>
<path d="M20.6865 31.4795C20.8644 31.4795 21.0383 31.5322 21.1862 31.6311C21.3341 31.7299 21.4494 31.8704 21.5175 32.0347C21.5855 32.1991 21.6033 32.3799 21.5686 32.5544C21.5339 32.7288 21.4483 32.8891 21.3225 33.0149C21.1967 33.1407 21.0365 33.2263 20.862 33.261C20.6875 33.2957 20.5067 33.2779 20.3423 33.2098C20.178 33.1418 20.0375 33.0265 19.9387 32.8786C19.8399 32.7307 19.7871 32.5568 19.7871 32.3789C19.7871 32.1404 19.8819 31.9116 20.0505 31.7429C20.2192 31.5743 20.448 31.4795 20.6865 31.4795V31.4795Z" fill="#2773E6"/>
<path d="M20.6865 5.93652C20.8644 5.93652 21.0383 5.98927 21.1862 6.0881C21.3341 6.18693 21.4494 6.3274 21.5175 6.49174C21.5855 6.65609 21.6033 6.83693 21.5686 7.01139C21.5339 7.18586 21.4483 7.34612 21.3225 7.4719C21.1967 7.59769 21.0365 7.68335 20.862 7.71805C20.6875 7.75275 20.5067 7.73494 20.3423 7.66687C20.178 7.5988 20.0375 7.48352 19.9387 7.33561C19.8399 7.1877 19.7871 7.01381 19.7871 6.83593C19.7871 6.59739 19.8819 6.36862 20.0505 6.19995C20.2192 6.03128 20.448 5.93652 20.6865 5.93652V5.93652Z" fill="#FBDA88"/>
<path d="M27.5225 19.0674C27.7003 19.0674 27.8742 19.1201 28.0221 19.219C28.17 19.3178 28.2853 19.4583 28.3534 19.6226C28.4215 19.7869 28.4393 19.9678 28.4046 20.1422C28.3699 20.3167 28.2842 20.477 28.1584 20.6028C28.0326 20.7285 27.8724 20.8142 27.6979 20.8489C27.5235 20.8836 27.3426 20.8658 27.1783 20.7977C27.0139 20.7296 26.8735 20.6144 26.7746 20.4665C26.6758 20.3186 26.623 20.1447 26.623 19.9668C26.623 19.7282 26.7178 19.4995 26.8865 19.3308C27.0551 19.1621 27.2839 19.0674 27.5225 19.0674V19.0674Z" fill="#EF635F"/>
</g>
<path d="M54.1364 32.0804C53.9231 32.0804 53.7417 32.0057 53.5924 31.8564C53.4644 31.7284 53.4004 31.5578 53.4004 31.3444V10.0964C53.4004 9.88308 53.4644 9.71242 53.5924 9.58442C53.7417 9.43508 53.9231 9.36041 54.1364 9.36041H55.6084C55.8217 9.36041 55.9924 9.43508 56.1204 9.58442C56.2697 9.71242 56.3444 9.88308 56.3444 10.0964V11.5044C57.5391 9.86175 59.2884 9.04041 61.5924 9.04041C63.8324 9.04041 65.5071 9.74441 66.6164 11.1524C67.7471 12.5604 68.3551 14.3737 68.4404 16.5924C68.4617 16.8271 68.4724 17.1897 68.4724 17.6804C68.4724 18.1711 68.4617 18.5337 68.4404 18.7684C68.3551 20.9657 67.7471 22.7791 66.6164 24.2084C65.4857 25.6164 63.8111 26.3204 61.5924 26.3204C59.3737 26.3204 57.6457 25.5204 56.4084 23.9204V31.3444C56.4084 31.5578 56.3444 31.7284 56.2164 31.8564C56.0884 32.0057 55.9177 32.0804 55.7044 32.0804H54.1364ZM60.9204 23.7284C62.4351 23.7284 63.5337 23.2591 64.2164 22.3204C64.9204 21.3817 65.3044 20.1444 65.3684 18.6084C65.3897 18.3951 65.4004 18.0857 65.4004 17.6804C65.4004 13.6484 63.9071 11.6324 60.9204 11.6324C59.4484 11.6324 58.3391 12.1231 57.5924 13.1044C56.8671 14.0644 56.4724 15.2164 56.4084 16.5604L56.3764 17.7764L56.4084 19.0244C56.4511 20.2831 56.8564 21.3817 57.6244 22.3204C58.3924 23.2591 59.4911 23.7284 60.9204 23.7284Z" fill="#001029"/>
<path d="M79.0869 26.3204C76.8896 26.3204 75.1296 25.6484 73.8069 24.3044C72.5056 22.9391 71.7909 21.0831 71.6629 18.7364L71.6309 17.6484L71.6629 16.5924C71.8122 14.2884 72.5376 12.4537 73.8389 11.0884C75.1616 9.72308 76.9002 9.04041 79.0549 9.04041C81.4229 9.04041 83.2576 9.79775 84.5589 11.3124C85.8602 12.8057 86.5109 14.8324 86.5109 17.3924V17.9364C86.5109 18.1497 86.4362 18.3311 86.2869 18.4804C86.1589 18.6084 85.9882 18.6724 85.7749 18.6724H74.7029V18.9604C74.7669 20.3471 75.1829 21.5311 75.9509 22.5124C76.7402 23.4724 77.7749 23.9524 79.0549 23.9524C80.0362 23.9524 80.8362 23.7604 81.4549 23.3764C82.0949 22.9711 82.5642 22.5551 82.8629 22.1284C83.0549 21.8724 83.1936 21.7231 83.2789 21.6804C83.3856 21.6164 83.5669 21.5844 83.8229 21.5844H85.3909C85.5829 21.5844 85.7429 21.6377 85.8709 21.7444C85.9989 21.8511 86.0629 22.0004 86.0629 22.1924C86.0629 22.6617 85.7642 23.2271 85.1669 23.8884C84.5909 24.5497 83.7696 25.1257 82.7029 25.6164C81.6576 26.0857 80.4522 26.3204 79.0869 26.3204ZM83.4709 16.4644V16.3684C83.4709 14.8964 83.0656 13.7017 82.2549 12.7844C81.4656 11.8457 80.3989 11.3764 79.0549 11.3764C77.7109 11.3764 76.6442 11.8457 75.8549 12.7844C75.0869 13.7017 74.7029 14.8964 74.7029 16.3684V16.4644H83.4709Z" fill="#001029"/>
<path d="M97.1531 26.3204C94.8065 26.3204 92.9825 25.6591 91.6811 24.3364C90.4011 23.0137 89.7185 21.2537 89.6331 19.0564L89.6011 17.6804L89.6331 16.3044C89.7185 14.1284 90.4118 12.3791 91.7131 11.0564C93.0145 9.71242 94.8278 9.04041 97.1531 9.04041C99.4785 9.04041 101.292 9.71242 102.593 11.0564C103.894 12.3791 104.588 14.1284 104.673 16.3044C104.694 16.5391 104.705 16.9977 104.705 17.6804C104.705 18.3631 104.694 18.8217 104.673 19.0564C104.588 21.2537 103.894 23.0137 102.593 24.3364C101.313 25.6591 99.4998 26.3204 97.1531 26.3204ZM97.1531 23.8564C98.4971 23.8564 99.5531 23.4297 100.321 22.5764C101.11 21.7231 101.537 20.4964 101.601 18.8964C101.622 18.6831 101.633 18.2777 101.633 17.6804C101.633 17.0831 101.622 16.6777 101.601 16.4644C101.537 14.8644 101.11 13.6377 100.321 12.7844C99.5531 11.9311 98.4971 11.5044 97.1531 11.5044C95.8091 11.5044 94.7425 11.9311 93.9531 12.7844C93.1638 13.6377 92.7478 14.8644 92.7051 16.4644L92.6731 17.6804L92.7051 18.8964C92.7478 20.4964 93.1638 21.7231 93.9531 22.5764C94.7425 23.4297 95.8091 23.8564 97.1531 23.8564Z" fill="#001029"/>
<path d="M109.48 32.0804C109.267 32.0804 109.085 32.0057 108.936 31.8564C108.808 31.7284 108.744 31.5578 108.744 31.3444V10.0964C108.744 9.88308 108.808 9.71242 108.936 9.58442C109.085 9.43508 109.267 9.36041 109.48 9.36041H110.952C111.165 9.36041 111.336 9.43508 111.464 9.58442C111.613 9.71242 111.688 9.88308 111.688 10.0964V11.5044C112.883 9.86175 114.632 9.04041 116.936 9.04041C119.176 9.04041 120.851 9.74441 121.96 11.1524C123.091 12.5604 123.699 14.3737 123.784 16.5924C123.805 16.8271 123.816 17.1897 123.816 17.6804C123.816 18.1711 123.805 18.5337 123.784 18.7684C123.699 20.9657 123.091 22.7791 121.96 24.2084C120.829 25.6164 119.155 26.3204 116.936 26.3204C114.717 26.3204 112.989 25.5204 111.752 23.9204V31.3444C111.752 31.5578 111.688 31.7284 111.56 31.8564C111.432 32.0057 111.261 32.0804 111.048 32.0804H109.48ZM116.264 23.7284C117.779 23.7284 118.877 23.2591 119.56 22.3204C120.264 21.3817 120.648 20.1444 120.712 18.6084C120.733 18.3951 120.744 18.0857 120.744 17.6804C120.744 13.6484 119.251 11.6324 116.264 11.6324C114.792 11.6324 113.683 12.1231 112.936 13.1044C112.211 14.0644 111.816 15.2164 111.752 16.5604L111.72 17.7764L111.752 19.0244C111.795 20.2831 112.2 21.3817 112.968 22.3204C113.736 23.2591 114.835 23.7284 116.264 23.7284Z" fill="#001029"/>
<path d="M128.543 26.0004C128.329 26.0004 128.148 25.9364 127.999 25.8084C127.871 25.6591 127.807 25.4777 127.807 25.2644V4.01641C127.807 3.80308 127.871 3.63242 127.999 3.50442C128.148 3.35508 128.329 3.28041 128.543 3.28041H130.047C130.26 3.28041 130.431 3.35508 130.559 3.50442C130.708 3.63242 130.783 3.80308 130.783 4.01641V25.2644C130.783 25.4777 130.708 25.6591 130.559 25.8084C130.431 25.9364 130.26 26.0004 130.047 26.0004H128.543Z" fill="#001029"/>
<path d="M142.212 26.3204C140.015 26.3204 138.255 25.6484 136.932 24.3044C135.631 22.9391 134.916 21.0831 134.788 18.7364L134.756 17.6484L134.788 16.5924C134.937 14.2884 135.663 12.4537 136.964 11.0884C138.287 9.72308 140.025 9.04041 142.18 9.04041C144.548 9.04041 146.383 9.79775 147.684 11.3124C148.985 12.8057 149.636 14.8324 149.636 17.3924V17.9364C149.636 18.1497 149.561 18.3311 149.412 18.4804C149.284 18.6084 149.113 18.6724 148.9 18.6724H137.828V18.9604C137.892 20.3471 138.308 21.5311 139.076 22.5124C139.865 23.4724 140.9 23.9524 142.18 23.9524C143.161 23.9524 143.961 23.7604 144.58 23.3764C145.22 22.9711 145.689 22.5551 145.988 22.1284C146.18 21.8724 146.319 21.7231 146.404 21.6804C146.511 21.6164 146.692 21.5844 146.948 21.5844H148.516C148.708 21.5844 148.868 21.6377 148.996 21.7444C149.124 21.8511 149.188 22.0004 149.188 22.1924C149.188 22.6617 148.889 23.2271 148.292 23.8884C147.716 24.5497 146.895 25.1257 145.828 25.6164C144.783 26.0857 143.577 26.3204 142.212 26.3204ZM146.596 16.4644V16.3684C146.596 14.8964 146.191 13.7017 145.38 12.7844C144.591 11.8457 143.524 11.3764 142.18 11.3764C140.836 11.3764 139.769 11.8457 138.98 12.7844C138.212 13.7017 137.828 14.8964 137.828 16.3684V16.4644H146.596Z" fill="#001029"/>
<path d="M157.441 26.0004C157.163 26.0004 156.95 25.9364 156.801 25.8084C156.651 25.6804 156.523 25.4777 156.417 25.2004L151.873 10.3524L151.809 10.0324C151.809 9.84042 151.873 9.68042 152.001 9.55242C152.15 9.42441 152.31 9.36041 152.481 9.36041H153.889C154.102 9.36041 154.273 9.42441 154.401 9.55242C154.55 9.65908 154.646 9.77642 154.689 9.90442L158.241 21.9684L162.049 10.0324C162.091 9.86175 162.187 9.71242 162.337 9.58442C162.486 9.43508 162.689 9.36041 162.945 9.36041H164.033C164.289 9.36041 164.491 9.43508 164.641 9.58442C164.79 9.71242 164.886 9.86175 164.929 10.0324L168.737 21.9684L172.289 9.90442C172.31 9.79775 172.385 9.68042 172.513 9.55242C172.662 9.42441 172.843 9.36041 173.057 9.36041H174.497C174.667 9.36041 174.817 9.42441 174.945 9.55242C175.073 9.68042 175.137 9.84042 175.137 10.0324L175.073 10.3524L170.561 25.2004C170.454 25.4777 170.326 25.6804 170.177 25.8084C170.027 25.9364 169.803 26.0004 169.505 26.0004H168.257C167.681 26.0004 167.329 25.7337 167.201 25.2004L163.489 13.7444L159.777 25.2004C159.606 25.7337 159.243 26.0004 158.689 26.0004H157.441Z" fill="#001029"/>
<path d="M179.449 26.0004C179.236 26.0004 179.054 25.9364 178.905 25.8084C178.777 25.6591 178.713 25.4777 178.713 25.2644V4.01641C178.713 3.80308 178.777 3.63242 178.905 3.50442C179.054 3.35508 179.236 3.28041 179.449 3.28041H181.049C181.262 3.28041 181.433 3.35508 181.561 3.50442C181.71 3.63242 181.785 3.80308 181.785 4.01641V11.4724C182.404 10.6831 183.129 10.0857 183.961 9.68041C184.793 9.25375 185.828 9.04041 187.065 9.04041C189.113 9.04041 190.702 9.70175 191.833 11.0244C192.985 12.3257 193.561 14.0644 193.561 16.2404V25.2644C193.561 25.4777 193.486 25.6591 193.337 25.8084C193.209 25.9364 193.038 26.0004 192.825 26.0004H191.225C191.012 26.0004 190.83 25.9364 190.681 25.8084C190.553 25.6591 190.489 25.4777 190.489 25.2644V16.4004C190.489 14.8857 190.116 13.7124 189.369 12.8804C188.644 12.0484 187.588 11.6324 186.201 11.6324C184.857 11.6324 183.78 12.0591 182.969 12.9124C182.18 13.7444 181.785 14.9071 181.785 16.4004V25.2644C181.785 25.4777 181.71 25.6591 181.561 25.8084C181.433 25.9364 181.262 26.0004 181.049 26.0004H179.449Z" fill="#001029"/>
<path d="M204.997 26.3204C202.65 26.3204 200.826 25.6591 199.525 24.3364C198.245 23.0137 197.562 21.2537 197.477 19.0564L197.445 17.6804L197.477 16.3044C197.562 14.1284 198.256 12.3791 199.557 11.0564C200.858 9.71242 202.672 9.04041 204.997 9.04041C207.322 9.04041 209.136 9.71242 210.437 11.0564C211.738 12.3791 212.432 14.1284 212.517 16.3044C212.538 16.5391 212.549 16.9977 212.549 17.6804C212.549 18.3631 212.538 18.8217 212.517 19.0564C212.432 21.2537 211.738 23.0137 210.437 24.3364C209.157 25.6591 207.344 26.3204 204.997 26.3204ZM204.997 23.8564C206.341 23.8564 207.397 23.4297 208.165 22.5764C208.954 21.7231 209.381 20.4964 209.445 18.8964C209.466 18.6831 209.477 18.2777 209.477 17.6804C209.477 17.0831 209.466 16.6777 209.445 16.4644C209.381 14.8644 208.954 13.6377 208.165 12.7844C207.397 11.9311 206.341 11.5044 204.997 11.5044C203.653 11.5044 202.586 11.9311 201.797 12.7844C201.008 13.6377 200.592 14.8644 200.549 16.4644L200.517 17.6804L200.549 18.8964C200.592 20.4964 201.008 21.7231 201.797 22.5764C202.586 23.4297 203.653 23.8564 204.997 23.8564Z" fill="#001029"/>
<path d="M216.755 26.0004C216.542 26.0004 216.361 25.9364 216.211 25.8084C216.083 25.6591 216.019 25.4777 216.019 25.2644V22.9604C216.019 22.7471 216.083 22.5764 216.211 22.4484C216.361 22.2991 216.542 22.2244 216.755 22.2244H219.059C219.273 22.2244 219.454 22.2991 219.603 22.4484C219.753 22.5764 219.827 22.7471 219.827 22.9604V25.2644C219.827 25.4777 219.753 25.6591 219.603 25.8084C219.454 25.9364 219.273 26.0004 219.059 26.0004H216.755Z" fill="#001029"/>
<path d="M230.073 26.3204C227.855 26.3204 226.18 25.5951 225.049 24.1444C223.919 22.6937 223.321 20.8591 223.257 18.6404L223.225 17.6804L223.257 16.7204C223.321 14.5231 223.919 12.6991 225.049 11.2484C226.18 9.77641 227.855 9.04041 230.073 9.04041C232.271 9.04041 233.999 9.81908 235.257 11.3764V4.01641C235.257 3.80308 235.321 3.63242 235.449 3.50442C235.599 3.35508 235.78 3.28041 235.993 3.28041H237.529C237.743 3.28041 237.913 3.35508 238.041 3.50442C238.191 3.63242 238.265 3.80308 238.265 4.01641V25.2644C238.265 25.4777 238.191 25.6591 238.041 25.8084C237.913 25.9364 237.743 26.0004 237.529 26.0004H236.089C235.876 26.0004 235.695 25.9364 235.545 25.8084C235.417 25.6591 235.353 25.4777 235.353 25.2644V23.9204C234.116 25.5204 232.356 26.3204 230.073 26.3204ZM230.745 23.7284C232.217 23.7284 233.316 23.2484 234.041 22.2884C234.788 21.3071 235.193 20.1444 235.257 18.8004C235.279 18.5657 235.289 18.1604 235.289 17.5844C235.289 16.9871 235.279 16.5711 235.257 16.3364C235.215 15.0777 234.809 13.9791 234.041 13.0404C233.273 12.1017 232.175 11.6324 230.745 11.6324C229.231 11.6324 228.121 12.1017 227.417 13.0404C226.735 13.9791 226.361 15.2164 226.297 16.7524L226.265 17.6804C226.265 21.7124 227.759 23.7284 230.745 23.7284Z" fill="#001029"/>
<path d="M249.681 26.3204C247.483 26.3204 245.723 25.6484 244.401 24.3044C243.099 22.9391 242.385 21.0831 242.257 18.7364L242.225 17.6484L242.257 16.5924C242.406 14.2884 243.131 12.4537 244.433 11.0884C245.755 9.72308 247.494 9.04041 249.649 9.04041C252.017 9.04041 253.851 9.79775 255.153 11.3124C256.454 12.8057 257.105 14.8324 257.105 17.3924V17.9364C257.105 18.1497 257.03 18.3311 256.881 18.4804C256.753 18.6084 256.582 18.6724 256.369 18.6724H245.297V18.9604C245.361 20.3471 245.777 21.5311 246.545 22.5124C247.334 23.4724 248.369 23.9524 249.649 23.9524C250.63 23.9524 251.43 23.7604 252.049 23.3764C252.689 22.9711 253.158 22.5551 253.457 22.1284C253.649 21.8724 253.787 21.7231 253.873 21.6804C253.979 21.6164 254.161 21.5844 254.417 21.5844H255.985C256.177 21.5844 256.337 21.6377 256.465 21.7444C256.593 21.8511 256.657 22.0004 256.657 22.1924C256.657 22.6617 256.358 23.2271 255.761 23.8884C255.185 24.5497 254.363 25.1257 253.297 25.6164C252.251 26.0857 251.046 26.3204 249.681 26.3204ZM254.065 16.4644V16.3684C254.065 14.8964 253.659 13.7017 252.849 12.7844C252.059 11.8457 250.993 11.3764 249.649 11.3764C248.305 11.3764 247.238 11.8457 246.449 12.7844C245.681 13.7017 245.297 14.8964 245.297 16.3684V16.4644H254.065Z" fill="#001029"/>
<path d="M266.691 26.3204C265.198 26.3204 263.939 26.0857 262.915 25.6164C261.912 25.1257 261.155 24.5711 260.643 23.9524C260.152 23.3337 259.907 22.8217 259.907 22.4164C259.907 22.2031 259.982 22.0431 260.131 21.9364C260.302 21.8084 260.472 21.7444 260.643 21.7444H262.083C262.296 21.7444 262.488 21.8511 262.659 22.0644C263.171 22.6617 263.726 23.1311 264.323 23.4724C264.92 23.8137 265.72 23.9844 266.723 23.9844C267.832 23.9844 268.728 23.7711 269.411 23.3444C270.115 22.8964 270.467 22.2884 270.467 21.5204C270.467 21.0084 270.318 20.5924 270.019 20.2724C269.742 19.9311 269.251 19.6431 268.547 19.4084C267.864 19.1524 266.84 18.8751 265.475 18.5764C263.619 18.1711 262.296 17.5844 261.507 16.8164C260.739 16.0484 260.355 15.0564 260.355 13.8404C260.355 13.0297 260.59 12.2617 261.059 11.5364C261.55 10.7897 262.254 10.1924 263.171 9.74442C264.11 9.27508 265.23 9.04041 266.531 9.04041C267.896 9.04041 269.059 9.26442 270.019 9.71242C270.979 10.1604 271.694 10.6937 272.163 11.3124C272.654 11.9097 272.899 12.4111 272.899 12.8164C272.899 13.0084 272.824 13.1684 272.675 13.2964C272.547 13.4244 272.387 13.4884 272.195 13.4884H270.851C270.595 13.4884 270.382 13.3817 270.211 13.1684C269.87 12.7631 269.571 12.4537 269.315 12.2404C269.08 12.0057 268.728 11.8031 268.259 11.6324C267.811 11.4617 267.235 11.3764 266.531 11.3764C265.507 11.3764 264.718 11.6004 264.163 12.0484C263.608 12.4751 263.331 13.0404 263.331 13.7444C263.331 14.1924 263.448 14.5764 263.683 14.8964C263.918 15.1951 264.366 15.4724 265.027 15.7284C265.71 15.9844 266.691 16.2511 267.971 16.5284C269.998 16.9551 271.427 17.5737 272.259 18.3844C273.112 19.1737 273.539 20.1871 273.539 21.4244C273.539 22.3417 273.272 23.1737 272.739 23.9204C272.206 24.6671 271.416 25.2537 270.371 25.6804C269.347 26.1071 268.12 26.3204 266.691 26.3204Z" fill="#001029"/>
<path d="M277.723 6.25641C277.51 6.25641 277.329 6.19241 277.179 6.06441C277.051 5.91508 276.987 5.73375 276.987 5.52041V3.79242C276.987 3.57908 277.051 3.39775 277.179 3.24841C277.329 3.09908 277.51 3.02441 277.723 3.02441H279.739C279.953 3.02441 280.134 3.09908 280.283 3.24841C280.433 3.39775 280.507 3.57908 280.507 3.79242V5.52041C280.507 5.73375 280.433 5.91508 280.283 6.06441C280.134 6.19241 279.953 6.25641 279.739 6.25641H277.723ZM277.979 26.0004C277.766 26.0004 277.585 25.9364 277.435 25.8084C277.307 25.6591 277.243 25.4777 277.243 25.2644V10.0964C277.243 9.88308 277.307 9.71242 277.435 9.58442C277.585 9.43508 277.766 9.36041 277.979 9.36041H279.515C279.729 9.36041 279.899 9.43508 280.027 9.58442C280.177 9.71242 280.251 9.88308 280.251 10.0964V25.2644C280.251 25.4777 280.177 25.6591 280.027 25.8084C279.899 25.9364 279.729 26.0004 279.515 26.0004H277.979Z" fill="#001029"/>
<path d="M291.809 33.0404C290.06 33.0404 288.652 32.7418 287.585 32.1444C286.519 31.5684 285.761 30.9071 285.313 30.1604C284.865 29.4137 284.62 28.7418 284.577 28.1444C284.556 27.9311 284.62 27.7497 284.769 27.6004C284.94 27.4511 285.121 27.3764 285.313 27.3764H286.849C287.041 27.3764 287.201 27.4191 287.329 27.5044C287.457 27.6111 287.564 27.7924 287.649 28.0484C287.905 28.7311 288.321 29.3177 288.897 29.8084C289.495 30.3204 290.412 30.5764 291.649 30.5764C293.228 30.5764 294.391 30.2351 295.137 29.5524C295.884 28.8911 296.257 27.7071 296.257 26.0004V23.8244C295.703 24.5284 294.999 25.0937 294.145 25.5204C293.292 25.9257 292.279 26.1284 291.105 26.1284C288.844 26.1284 287.148 25.4137 286.017 23.9844C284.908 22.5337 284.321 20.6991 284.257 18.4804L284.225 17.5844L284.257 16.7204C284.321 14.5231 284.919 12.6991 286.049 11.2484C287.18 9.77641 288.865 9.04041 291.105 9.04041C293.345 9.04041 295.095 9.86175 296.353 11.5044V10.1284C296.353 9.91508 296.417 9.73375 296.545 9.58442C296.695 9.43508 296.876 9.36041 297.089 9.36041H298.561C298.775 9.36041 298.956 9.43508 299.105 9.58442C299.255 9.73375 299.329 9.91508 299.329 10.1284V25.6484C299.329 30.5764 296.823 33.0404 291.809 33.0404ZM291.745 23.5684C293.196 23.5684 294.295 23.0884 295.041 22.1284C295.788 21.1684 296.193 20.0271 296.257 18.7044C296.279 18.5124 296.289 18.1391 296.289 17.5844C296.289 17.0511 296.279 16.6884 296.257 16.4964C296.193 15.1737 295.788 14.0324 295.041 13.0724C294.316 12.1124 293.217 11.6324 291.745 11.6324C290.231 11.6324 289.132 12.1017 288.449 13.0404C287.767 13.9791 287.393 15.2164 287.329 16.7524L287.297 17.5844L287.329 18.4484C287.393 19.9631 287.767 21.2004 288.449 22.1604C289.132 23.0991 290.231 23.5684 291.745 23.5684Z" fill="#001029"/>
<path d="M304.823 26.0004C304.61 26.0004 304.428 25.9364 304.279 25.8084C304.151 25.6591 304.087 25.4777 304.087 25.2644V10.0964C304.087 9.88308 304.151 9.71242 304.279 9.58442C304.428 9.43508 304.61 9.36041 304.823 9.36041H306.327C306.54 9.36041 306.711 9.43508 306.839 9.58442C306.988 9.71242 307.063 9.88308 307.063 10.0964V11.5044C307.682 10.7151 308.407 10.1071 309.239 9.68041C310.092 9.25375 311.148 9.04041 312.407 9.04041C314.455 9.04041 316.044 9.70175 317.175 11.0244C318.327 12.3257 318.903 14.0644 318.903 16.2404V25.2644C318.903 25.4777 318.828 25.6591 318.679 25.8084C318.551 25.9364 318.38 26.0004 318.167 26.0004H316.567C316.354 26.0004 316.172 25.9364 316.023 25.8084C315.895 25.6591 315.831 25.4777 315.831 25.2644V16.4004C315.831 14.8857 315.458 13.7124 314.711 12.8804C313.986 12.0484 312.93 11.6324 311.543 11.6324C310.199 11.6324 309.132 12.0591 308.343 12.9124C307.554 13.7444 307.159 14.9071 307.159 16.4004V25.2644C307.159 25.4777 307.084 25.6591 306.935 25.8084C306.807 25.9364 306.636 26.0004 306.423 26.0004H304.823Z" fill="#001029"/>
<defs>
<filter id="filter0_d" x="0" y="0.00195312" width="32.6221" height="39.7615" filterUnits="userSpaceOnUse" color-interpolation-filters="sRGB">
<feFlood flood-opacity="0" result="BackgroundImageFix"/>
<feColorMatrix in="SourceAlpha" type="matrix" values="0 0 0 0 0 0 0 0 0 0 0 0 0 0 0 0 0 0 127 0"/>
<feOffset/>
<feColorMatrix type="matrix" values="0 0 0 0 0 0 0 0 0 0 0 0 0 0 0 0 0 0 0.25 0"/>
<feBlend mode="normal" in2="BackgroundImageFix" result="effect1_dropShadow"/>
<feBlend mode="normal" in="SourceGraphic" in2="effect1_dropShadow" result="shape"/>
</filter>
<clipPath id="clip0">
<rect width="32.6222" height="39.7617" fill="white"/>
</clipPath>
</defs>
</svg>
