<svg width="16" height="16" viewBox="0 0 16 16" fill="none" xmlns="http://www.w3.org/2000/svg">
<g clip-path="url(#clip0)">
<path fill-rule="evenodd" clip-rule="evenodd" d="M5.86604 0C4.98159 0.000652396 4.26578 0.716983 4.26644 1.59967C4.26578 2.48237 4.98224 3.1987 5.8667 3.19935H7.46696V1.60033C7.46761 0.717635 6.75116 0.00130479 5.86604 0C5.8667 0 5.8667 0 5.86604 0V0ZM5.86604 4.26667H1.59999C0.71553 4.26732 -0.000926573 4.98365 -0.000272872 5.86634C-0.00158027 6.74903 0.714877 7.46536 1.59933 7.46667H5.86604C6.7505 7.46601 7.46696 6.74968 7.46631 5.86699C7.46696 4.98365 6.7505 4.26732 5.86604 4.26667Z" fill="#36C5F0"/>
<path fill-rule="evenodd" clip-rule="evenodd" d="M16 5.86634C16.0007 4.98365 15.2842 4.26732 14.3997 4.26667C13.5153 4.26732 12.7988 4.98365 12.7995 5.86634V7.46667H14.3997C15.2842 7.46601 16.0007 6.74968 16 5.86634ZM11.7333 5.86634V1.59967C11.7339 0.717635 11.0181 0.00130479 10.1337 0C9.24921 0.000652396 8.53276 0.716983 8.53341 1.59967V5.86634C8.5321 6.74903 9.24856 7.46536 10.133 7.46667C11.0175 7.46601 11.7339 6.74968 11.7333 5.86634Z" fill="#2EB67D"/>
<path fill-rule="evenodd" clip-rule="evenodd" d="M10.133 16C11.0175 15.9994 11.7339 15.283 11.7333 14.4003C11.7339 13.5176 11.0175 12.8013 10.133 12.8007H8.53275V14.4003C8.5321 15.2824 9.24856 15.9987 10.133 16ZM10.133 11.7327H14.3997C15.2842 11.732 16.0006 11.0157 16 10.133C16.0013 9.25032 15.2848 8.53399 14.4004 8.53268H10.1337C9.24921 8.53334 8.53275 9.24967 8.53341 10.1324C8.53275 11.0157 9.24856 11.732 10.133 11.7327Z" fill="#ECB22E"/>
<path fill-rule="evenodd" clip-rule="evenodd" d="M4.46977e-07 10.133C-0.000653255 11.0157 0.715804 11.732 1.60026 11.7327C2.48472 11.732 3.20118 11.0157 3.20053 10.133V8.53333H1.60026C0.715804 8.53398 -0.000653255 9.25031 4.46977e-07 10.133ZM4.26671 10.133V14.3997C4.26541 15.2824 4.98186 15.9987 5.86632 16C6.75078 15.9994 7.46724 15.283 7.46659 14.4003V10.1343C7.46789 9.25161 6.75144 8.53528 5.86698 8.53398C4.98186 8.53398 4.26606 9.25031 4.26671 10.133C4.26671 10.133 4.26671 10.1337 4.26671 10.133Z" fill="#E01E5A"/>
</g>
<defs>
<clipPath id="clip0">
<rect width="16" height="16" fill="white"/>
</clipPath>
</defs>
</svg>
