<svg width="24" height="24" viewBox="0 0 24 24" fill="none" xmlns="http://www.w3.org/2000/svg">
<g clip-path="url(#clip0)">
<path d="M12.0001 24.0001C18.6275 24.0001 24.0001 18.6275 24.0001 12C24.0001 5.3726 18.6275 0 12.0001 0C5.37263 0 3.05176e-05 5.3726 3.05176e-05 12C3.05176e-05 18.6275 5.37263 24.0001 12.0001 24.0001Z" fill="#2DAAE1"/>
<path d="M19.6942 7.22662C19.1281 7.47778 18.5202 7.64757 17.881 7.72389C18.5334 7.33325 19.0331 6.71423 19.2691 5.97749C18.6494 6.34555 17.9712 6.60466 17.264 6.74357C16.6884 6.13009 15.8677 5.74707 14.9597 5.74707C13.2168 5.74707 11.8034 7.15996 11.8034 8.90383C11.8034 9.15092 11.8312 9.39197 11.8847 9.62341C9.26105 9.49156 6.93502 8.23481 5.37808 6.32518C5.10622 6.79157 4.9506 7.33382 4.9506 7.91238C4.9506 9.00745 5.50798 9.97363 6.3549 10.5396C5.85354 10.5241 5.36318 10.3887 4.92481 10.1449V10.1848C4.92481 11.7144 6.01279 12.9899 7.45702 13.28C7.19172 13.3527 6.9133 13.3906 6.62526 13.3906C6.42161 13.3906 6.22402 13.3714 6.03101 13.3351C6.43273 14.5888 7.59858 15.5014 8.97957 15.5272C7.89917 16.3741 6.53782 16.8789 5.05924 16.8789C4.80457 16.8789 4.55287 16.8637 4.30579 16.834C5.70304 17.7299 7.36204 18.2529 9.14484 18.2529C14.9511 18.2529 18.1266 13.4427 18.1266 9.27124C18.1266 9.13429 18.1236 8.99836 18.117 8.86292C18.7357 8.41542 19.2697 7.86134 19.6942 7.22662Z" fill="white"/>
</g>
<defs>
<clipPath id="clip0">
<rect width="24" height="24" fill="white"/>
</clipPath>
</defs>
</svg>
